<svg width="535" height="72" viewBox="0 0 535 72" fill="none" xmlns="http://www.w3.org/2000/svg">
<g clip-path="url(#clip0_9_2)">
<path d="M0.399474 70.6071C0.133158 70.6071 0 70.4407 0 70.1078L0.0998684 1.59789C0.0998684 1.265 0.266316 1.09855 0.599212 1.09855H11.6846C12.0175 1.09855 12.184 1.265 12.184 1.59789L12.0841 58.3233H32.657C32.9899 58.3233 33.1564 58.4897 33.1564 58.8226V70.1078C33.1564 70.4407 32.9899 70.6071 32.657 70.6071H0.399474Z" fill="#413C5C"/>
<path d="M32.3036 70.1078L44.6873 1.49803C44.7539 1.23171 44.9203 1.09855 45.1866 1.09855H59.6676C59.9339 1.09855 60.1004 1.23171 60.1669 1.49803L72.0513 70.1078C72.1179 70.4407 71.9847 70.6071 71.6518 70.6071H60.5664C60.3001 70.6071 60.1336 70.4407 60.0671 70.1078L58.9685 62.8173H45.3864L44.2878 70.1078C44.2212 70.4407 44.0548 70.6071 43.7885 70.6071H32.7031C32.4367 70.6071 32.3036 70.4407 32.3036 70.1078ZM47.3838 52.1314H56.9711L52.8765 24.0683L52.2773 20.3732L51.8778 24.0683L47.3838 52.1314Z" fill="#413C5C"/>
<path d="M74.7236 70.6071C74.4572 70.6071 74.3241 70.4407 74.3241 70.1078L74.5238 1.49803C74.5238 1.23171 74.657 1.09855 74.9233 1.09855H95.0968C98.692 1.09855 101.988 1.99737 104.984 3.79501C108.046 5.52606 110.477 7.88962 112.274 10.8857C114.072 13.8152 114.971 17.1441 114.971 20.8725C114.971 23.336 114.604 25.5664 113.872 27.5637C113.14 29.4945 112.274 31.159 111.275 32.5572C110.277 33.8887 109.378 34.8874 108.579 35.5532C112.174 39.548 113.972 44.2418 113.972 49.6347L114.072 70.1078C114.072 70.4407 113.905 70.6071 113.572 70.6071H102.287C102.021 70.6071 101.888 70.5072 101.888 70.3075V49.6347C101.888 47.2378 101.022 45.1739 99.2912 43.4428C97.6268 41.6452 95.5628 40.7464 93.0994 40.7464H86.5081L86.4082 70.1078C86.4082 70.4407 86.275 70.6071 86.0087 70.6071H74.7236ZM86.5081 28.7622H95.0968C97.1607 28.7622 98.9916 27.9965 100.59 26.4652C102.187 24.9339 102.986 23.0696 102.986 20.8725C102.986 18.742 102.187 16.9111 100.59 15.3798C99.0582 13.8484 97.2273 13.0828 95.0968 13.0828H86.5081V28.7622Z" fill="#413C5C"/>
<path d="M115.113 70.1078L127.496 1.49803C127.563 1.23171 127.729 1.09855 127.996 1.09855H142.477C142.743 1.09855 142.909 1.23171 142.976 1.49803L154.86 70.1078C154.927 70.4407 154.794 70.6071 154.461 70.6071H143.375C143.109 70.6071 142.943 70.4407 142.876 70.1078L141.778 62.8173H128.195L127.097 70.1078C127.03 70.4407 126.864 70.6071 126.597 70.6071H115.512C115.246 70.6071 115.113 70.4407 115.113 70.1078ZM130.193 52.1314H139.78L135.686 24.0683L135.086 20.3732L134.687 24.0683L130.193 52.1314Z" fill="#413C5C"/>
<path d="M161.882 70.6071C161.615 70.6071 161.449 70.4407 161.382 70.1078L147.6 1.49803C147.534 1.23171 147.667 1.09855 148 1.09855H159.285C159.551 1.09855 159.718 1.23171 159.784 1.49803L167.974 47.2378L175.963 1.49803C176.03 1.23171 176.196 1.09855 176.462 1.09855H187.648C187.981 1.09855 188.114 1.23171 188.047 1.49803L174.465 70.1078C174.398 70.4407 174.232 70.6071 173.966 70.6071H161.882Z" fill="#413C5C"/>
<path d="M190.306 70.6071C190.04 70.6071 189.906 70.4407 189.906 70.1078L190.006 1.49803C190.006 1.23171 190.139 1.09855 190.406 1.09855H222.464C222.73 1.09855 222.863 1.265 222.863 1.59789V12.7832C222.863 13.0495 222.73 13.1827 222.464 13.1827H201.99V28.7622H222.464C222.73 28.7622 222.863 28.8953 222.863 29.1616L222.963 40.4468C222.963 40.7131 222.83 40.8463 222.563 40.8463H201.99V58.3233H222.563C222.83 58.3233 222.963 58.4897 222.963 58.8226V70.2076C222.963 70.4739 222.83 70.6071 222.563 70.6071H190.306Z" fill="#413C5C"/>
<path d="M228.248 70.6071C227.982 70.6071 227.849 70.4407 227.849 70.1078L227.949 1.59789C227.949 1.265 228.115 1.09855 228.448 1.09855H239.533C239.866 1.09855 240.033 1.265 240.033 1.59789L239.933 58.3233H260.506C260.839 58.3233 261.005 58.4897 261.005 58.8226V70.1078C261.005 70.4407 260.839 70.6071 260.506 70.6071H228.248Z" fill="#413C5C"/>
<path d="M280.365 70.6071C280.099 70.6071 279.966 70.4407 279.966 70.1078V13.1827H266.983C266.65 13.1827 266.484 13.0162 266.484 12.6833L266.584 1.49803C266.584 1.23171 266.717 1.09855 266.983 1.09855H304.933C305.266 1.09855 305.433 1.23171 305.433 1.49803V12.6833C305.433 13.0162 305.299 13.1827 305.033 13.1827H291.95L292.05 70.1078C292.05 70.4407 291.917 70.6071 291.651 70.6071H280.365Z" fill="#FC6C3D"/>
<path d="M298.391 70.1078L310.775 1.49803C310.841 1.23171 311.008 1.09855 311.274 1.09855H325.755C326.021 1.09855 326.188 1.23171 326.254 1.49803L338.139 70.1078C338.205 70.4407 338.072 70.6071 337.739 70.6071H326.654C326.387 70.6071 326.221 70.4407 326.154 70.1078L325.056 62.8173H311.474L310.375 70.1078C310.309 70.4407 310.142 70.6071 309.876 70.6071H298.79C298.524 70.6071 298.391 70.4407 298.391 70.1078ZM313.471 52.1314H323.059L318.964 24.0683L318.365 20.3732L317.965 24.0683L313.471 52.1314Z" fill="#FC6C3D"/>
<path d="M356.642 71.6058C352.98 71.6058 349.651 70.707 346.655 68.9093C343.725 67.0451 341.395 64.5817 339.664 61.5191C337.933 58.4564 337.067 55.0276 337.067 51.2326L337.167 20.0736C337.167 16.4117 338 13.0828 339.664 10.0867C341.395 7.02409 343.725 4.59396 346.655 2.79632C349.651 0.932107 352.98 0 356.642 0C360.304 0 363.599 0.898818 366.529 2.69645C369.458 4.49408 371.788 6.92422 373.519 9.98686C375.251 12.9829 376.116 16.3452 376.116 20.0736V24.6675C376.116 24.9339 375.983 25.067 375.717 25.067H364.531C364.265 25.067 364.132 24.9339 364.132 24.6675V20.0736C364.132 17.8765 363.399 15.979 361.935 14.3811C360.537 12.7832 358.772 11.9842 356.642 11.9842C354.245 11.9842 352.414 12.8165 351.149 14.4809C349.884 16.0788 349.251 17.9431 349.251 20.0736V51.2326C349.251 53.696 349.951 55.6934 351.349 57.2247C352.813 58.756 354.578 59.5217 356.642 59.5217C358.772 59.5217 360.537 58.6894 361.935 57.025C363.399 55.2939 364.132 53.3631 364.132 51.2326V46.6386C364.132 46.3723 364.265 46.2392 364.531 46.2392H375.816C376.083 46.2392 376.216 46.3723 376.216 46.6386V51.2326C376.216 55.0276 375.317 58.4564 373.519 61.5191C371.788 64.5817 369.458 67.0451 366.529 68.9093C363.599 70.707 360.304 71.6058 356.642 71.6058Z" fill="#FC6C3D"/>
<path d="M379.924 70.6071C379.657 70.6071 379.524 70.4407 379.524 70.1078L379.624 1.49803C379.624 1.23171 379.79 1.09855 380.123 1.09855H391.209C391.542 1.09855 391.708 1.23171 391.708 1.49803L391.608 28.6623H406.588V1.49803C406.588 1.23171 406.722 1.09855 406.988 1.09855H418.073C418.406 1.09855 418.573 1.23171 418.573 1.49803L418.772 70.1078C418.772 70.4407 418.606 70.6071 418.273 70.6071H407.088C406.755 70.6071 406.588 70.4407 406.588 70.1078V40.7464H391.608V70.1078C391.608 70.4407 391.475 70.6071 391.209 70.6071H379.924Z" fill="#FC6C3D"/>
<path d="M432.216 70.6071C432.016 70.6071 431.916 70.4739 431.916 70.2076L432.016 41.8449L418.634 1.49803C418.567 1.23171 418.667 1.09855 418.933 1.09855H430.019C430.351 1.09855 430.551 1.23171 430.618 1.49803L438.008 28.3627L445.498 1.49803C445.565 1.23171 445.731 1.09855 445.998 1.09855H457.183C457.449 1.09855 457.549 1.23171 457.482 1.49803L444 41.4455L444.1 70.2076C444.1 70.4739 443.967 70.6071 443.701 70.6071H432.216Z" fill="#FC6C3D"/>
<path d="M474.177 71.6058C470.582 71.6058 467.286 70.707 464.29 68.9093C461.36 67.0451 458.997 64.615 457.199 61.6189C455.402 58.5563 454.503 55.194 454.503 51.5322L454.603 19.8739C454.603 16.212 455.468 12.883 457.199 9.88699C458.997 6.89093 461.394 4.49408 464.39 2.69645C467.386 0.898818 470.648 0 474.177 0C477.772 0 481.035 0.898818 483.964 2.69645C486.893 4.49408 489.224 6.89093 490.955 9.88699C492.752 12.883 493.651 16.212 493.651 19.8739L493.751 51.5322C493.751 55.194 492.852 58.5563 491.055 61.6189C489.324 64.615 486.96 67.0451 483.964 68.9093C481.035 70.707 477.772 71.6058 474.177 71.6058ZM474.177 59.5217C476.174 59.5217 477.905 58.7227 479.37 57.1248C480.901 55.4604 481.667 53.5961 481.667 51.5322L481.567 19.8739C481.567 17.6767 480.868 15.8125 479.47 14.2812C478.072 12.7499 476.307 11.9842 474.177 11.9842C472.113 11.9842 470.349 12.7499 468.884 14.2812C467.419 15.7459 466.687 17.6102 466.687 19.8739V51.5322C466.687 53.7293 467.419 55.6268 468.884 57.2247C470.349 58.756 472.113 59.5217 474.177 59.5217Z" fill="#FC6C3D"/>
<path d="M498.248 70.6071C497.716 70.6071 497.449 70.3741 497.449 69.908L497.35 1.8975C497.35 1.36487 497.616 1.09855 498.148 1.09855H507.137L524.014 40.4468L523.515 1.8975C523.515 1.36487 523.815 1.09855 524.414 1.09855H534.301C534.7 1.09855 534.9 1.36487 534.9 1.8975L535 70.0079C535 70.4074 534.834 70.6071 534.501 70.6071H525.712L508.435 33.8555L509.134 69.8081C509.134 70.3408 508.834 70.6071 508.235 70.6071H498.248Z" fill="#FC6C3D"/>
</g>
<defs>
<clipPath id="clip0_9_2">
<rect width="535" height="72" fill="white"/>
</clipPath>
</defs>
</svg>
