<svg width="981" height="246" viewBox="0 0 981 246" fill="none" xmlns="http://www.w3.org/2000/svg">
<mask id="mask0_1_467" style="mask-type:luminance" maskUnits="userSpaceOnUse" x="0" y="0" width="981" height="246">
<path d="M980.5 0H0V245.6H980.5V0Z" fill="white"/>
</mask>
<g mask="url(#mask0_1_467)">
<path d="M181.47 128V118.2H185.292C186.151 118.2 186.883 118.335 187.49 118.606C188.097 118.877 188.563 119.269 188.89 119.782C189.217 120.295 189.38 120.907 189.38 121.616C189.38 122.325 189.217 122.937 188.89 123.45C188.563 123.954 188.097 124.341 187.49 124.612C186.883 124.883 186.151 125.018 185.292 125.018H182.24L182.87 124.374V128H181.47ZM188.022 128L185.53 124.444H187.028L189.548 128H188.022ZM182.87 124.514L182.24 123.828H185.25C186.146 123.828 186.823 123.637 187.28 123.254C187.747 122.862 187.98 122.316 187.98 121.616C187.98 120.916 187.747 120.375 187.28 119.992C186.823 119.609 186.146 119.418 185.25 119.418H182.24L182.87 118.718V124.514ZM195.702 128.112C194.414 128.112 193.401 127.743 192.664 127.006C191.927 126.269 191.558 125.191 191.558 123.772V118.2H192.958V123.716C192.958 124.808 193.196 125.606 193.672 126.11C194.157 126.614 194.839 126.866 195.716 126.866C196.603 126.866 197.284 126.614 197.76 126.11C198.245 125.606 198.488 124.808 198.488 123.716V118.2H199.846V123.772C199.846 125.191 199.477 126.269 198.74 127.006C198.012 127.743 196.999 128.112 195.702 128.112ZM205.572 128.112C204.825 128.112 204.111 128 203.43 127.776C202.749 127.543 202.212 127.244 201.82 126.88L202.338 125.788C202.711 126.115 203.187 126.385 203.766 126.6C204.345 126.815 204.947 126.922 205.572 126.922C206.141 126.922 206.603 126.857 206.958 126.726C207.313 126.595 207.574 126.418 207.742 126.194C207.91 125.961 207.994 125.699 207.994 125.41C207.994 125.074 207.882 124.803 207.658 124.598C207.443 124.393 207.159 124.229 206.804 124.108C206.459 123.977 206.076 123.865 205.656 123.772C205.236 123.679 204.811 123.571 204.382 123.45C203.962 123.319 203.575 123.156 203.22 122.96C202.875 122.764 202.595 122.503 202.38 122.176C202.165 121.84 202.058 121.411 202.058 120.888C202.058 120.384 202.189 119.922 202.45 119.502C202.721 119.073 203.131 118.732 203.682 118.48C204.242 118.219 204.951 118.088 205.81 118.088C206.379 118.088 206.944 118.163 207.504 118.312C208.064 118.461 208.549 118.676 208.96 118.956L208.498 120.076C208.078 119.796 207.635 119.595 207.168 119.474C206.701 119.343 206.249 119.278 205.81 119.278C205.259 119.278 204.807 119.348 204.452 119.488C204.097 119.628 203.836 119.815 203.668 120.048C203.509 120.281 203.43 120.543 203.43 120.832C203.43 121.177 203.537 121.453 203.752 121.658C203.976 121.863 204.261 122.027 204.606 122.148C204.961 122.269 205.348 122.381 205.768 122.484C206.188 122.577 206.608 122.685 207.028 122.806C207.457 122.927 207.845 123.086 208.19 123.282C208.545 123.478 208.829 123.739 209.044 124.066C209.259 124.393 209.366 124.813 209.366 125.326C209.366 125.821 209.231 126.283 208.96 126.712C208.689 127.132 208.269 127.473 207.7 127.734C207.14 127.986 206.431 128.112 205.572 128.112ZM214.267 128.112C213.521 128.112 212.807 128 212.125 127.776C211.444 127.543 210.907 127.244 210.515 126.88L211.033 125.788C211.407 126.115 211.883 126.385 212.461 126.6C213.04 126.815 213.642 126.922 214.267 126.922C214.837 126.922 215.299 126.857 215.653 126.726C216.008 126.595 216.269 126.418 216.437 126.194C216.605 125.961 216.689 125.699 216.689 125.41C216.689 125.074 216.577 124.803 216.353 124.598C216.139 124.393 215.854 124.229 215.499 124.108C215.154 123.977 214.771 123.865 214.351 123.772C213.931 123.679 213.507 123.571 213.077 123.45C212.657 123.319 212.27 123.156 211.915 122.96C211.57 122.764 211.29 122.503 211.075 122.176C210.861 121.84 210.753 121.411 210.753 120.888C210.753 120.384 210.884 119.922 211.145 119.502C211.416 119.073 211.827 118.732 212.377 118.48C212.937 118.219 213.647 118.088 214.505 118.088C215.075 118.088 215.639 118.163 216.199 118.312C216.759 118.461 217.245 118.676 217.655 118.956L217.193 120.076C216.773 119.796 216.33 119.595 215.863 119.474C215.397 119.343 214.944 119.278 214.505 119.278C213.955 119.278 213.502 119.348 213.147 119.488C212.793 119.628 212.531 119.815 212.363 120.048C212.205 120.281 212.125 120.543 212.125 120.832C212.125 121.177 212.233 121.453 212.447 121.658C212.671 121.863 212.956 122.027 213.301 122.148C213.656 122.269 214.043 122.381 214.463 122.484C214.883 122.577 215.303 122.685 215.723 122.806C216.153 122.927 216.54 123.086 216.885 123.282C217.24 123.478 217.525 123.739 217.739 124.066C217.954 124.393 218.061 124.813 218.061 125.326C218.061 125.821 217.926 126.283 217.655 126.712C217.385 127.132 216.965 127.473 216.395 127.734C215.835 127.986 215.126 128.112 214.267 128.112ZM220.107 128V118.2H221.507V128H220.107ZM222.957 128L227.395 118.2H228.781L233.233 128H231.763L227.801 118.984H228.361L224.399 128H222.957ZM224.847 125.55L225.225 124.43H230.741L231.147 125.55H224.847ZM233.589 121.98L233.505 118.2H234.681L234.583 121.98H233.589ZM239.889 128.112C239.142 128.112 238.428 128 237.747 127.776C237.065 127.543 236.529 127.244 236.137 126.88L236.655 125.788C237.028 126.115 237.504 126.385 238.083 126.6C238.661 126.815 239.263 126.922 239.889 126.922C240.458 126.922 240.92 126.857 241.275 126.726C241.629 126.595 241.891 126.418 242.059 126.194C242.227 125.961 242.311 125.699 242.311 125.41C242.311 125.074 242.199 124.803 241.975 124.598C241.76 124.393 241.475 124.229 241.121 124.108C240.775 123.977 240.393 123.865 239.973 123.772C239.553 123.679 239.128 123.571 238.699 123.45C238.279 123.319 237.891 123.156 237.537 122.96C237.191 122.764 236.911 122.503 236.697 122.176C236.482 121.84 236.375 121.411 236.375 120.888C236.375 120.384 236.505 119.922 236.767 119.502C237.037 119.073 237.448 118.732 237.999 118.48C238.559 118.219 239.268 118.088 240.127 118.088C240.696 118.088 241.261 118.163 241.821 118.312C242.381 118.461 242.866 118.676 243.276 118.956L242.815 120.076C242.395 119.796 241.951 119.595 241.485 119.474C241.018 119.343 240.565 119.278 240.127 119.278C239.576 119.278 239.123 119.348 238.769 119.488C238.414 119.628 238.153 119.815 237.985 120.048C237.826 120.281 237.747 120.543 237.747 120.832C237.747 121.177 237.854 121.453 238.069 121.658C238.293 121.863 238.577 122.027 238.923 122.148C239.277 122.269 239.665 122.381 240.085 122.484C240.505 122.577 240.925 122.685 241.345 122.806C241.774 122.927 242.161 123.086 242.507 123.282C242.861 123.478 243.146 123.739 243.361 124.066C243.575 124.393 243.683 124.813 243.683 125.326C243.683 125.821 243.547 126.283 243.276 126.712C243.006 127.132 242.586 127.473 242.017 127.734C241.457 127.986 240.747 128.112 239.889 128.112ZM251.742 128L248.466 118.2H249.908L252.918 127.244H252.19L255.312 118.2H256.6L259.652 127.244H258.952L262.004 118.2H263.334L260.058 128H258.588L255.732 119.614H256.11L253.24 128H251.742ZM263.248 128L267.686 118.2H269.072L273.524 128H272.054L268.092 118.984H268.652L264.69 128H263.248ZM265.138 125.55L265.516 124.43H271.032L271.438 125.55H265.138ZM274.986 128V118.2H278.808C279.666 118.2 280.399 118.335 281.006 118.606C281.612 118.877 282.079 119.269 282.406 119.782C282.732 120.295 282.896 120.907 282.896 121.616C282.896 122.325 282.732 122.937 282.406 123.45C282.079 123.954 281.612 124.341 281.006 124.612C280.399 124.883 279.666 125.018 278.808 125.018H275.756L276.386 124.374V128H274.986ZM281.538 128L279.046 124.444H280.544L283.064 128H281.538ZM276.386 124.514L275.756 123.828H278.766C279.662 123.828 280.338 123.637 280.796 123.254C281.262 122.862 281.496 122.316 281.496 121.616C281.496 120.916 281.262 120.375 280.796 119.992C280.338 119.609 279.662 119.418 278.766 119.418H275.756L276.386 118.718V124.514ZM287.433 128L291.871 118.2H293.257L297.709 128H296.239L292.277 118.984H292.837L288.875 128H287.433ZM289.323 125.55L289.701 124.43H295.217L295.623 125.55H289.323ZM303.458 128.112C302.702 128.112 302.007 127.991 301.372 127.748C300.738 127.496 300.187 127.146 299.72 126.698C299.254 126.241 298.89 125.709 298.628 125.102C298.367 124.495 298.236 123.828 298.236 123.1C298.236 122.372 298.367 121.705 298.628 121.098C298.89 120.491 299.254 119.964 299.72 119.516C300.196 119.059 300.752 118.709 301.386 118.466C302.021 118.214 302.721 118.088 303.486 118.088C304.261 118.088 304.97 118.214 305.614 118.466C306.258 118.718 306.804 119.096 307.252 119.6L306.384 120.468C305.983 120.076 305.544 119.791 305.068 119.614C304.602 119.427 304.093 119.334 303.542 119.334C302.982 119.334 302.46 119.427 301.974 119.614C301.498 119.801 301.083 120.062 300.728 120.398C300.383 120.734 300.112 121.135 299.916 121.602C299.73 122.059 299.636 122.559 299.636 123.1C299.636 123.632 299.73 124.131 299.916 124.598C300.112 125.055 300.383 125.457 300.728 125.802C301.083 126.138 301.498 126.399 301.974 126.586C302.45 126.773 302.968 126.866 303.528 126.866C304.051 126.866 304.55 126.787 305.026 126.628C305.512 126.46 305.96 126.185 306.37 125.802L307.168 126.866C306.683 127.277 306.114 127.589 305.46 127.804C304.816 128.009 304.149 128.112 303.458 128.112ZM305.824 126.684V123.044H307.168V126.866L305.824 126.684ZM308.365 128L312.803 118.2H314.189L318.641 128H317.171L313.209 118.984H313.769L309.807 128H308.365ZM310.255 125.55L310.633 124.43H316.149L316.555 125.55H310.255ZM320.103 128V118.2H321.503V128H320.103ZM324.437 128V118.2H325.585L332.067 126.25H331.465V118.2H332.865V128H331.717L325.235 119.95H325.837V128H324.437ZM338.654 128.112C337.907 128.112 337.193 128 336.512 127.776C335.831 127.543 335.294 127.244 334.902 126.88L335.42 125.788C335.793 126.115 336.269 126.385 336.848 126.6C337.427 126.815 338.029 126.922 338.654 126.922C339.223 126.922 339.685 126.857 340.04 126.726C340.395 126.595 340.656 126.418 340.824 126.194C340.992 125.961 341.076 125.699 341.076 125.41C341.076 125.074 340.964 124.803 340.74 124.598C340.525 124.393 340.241 124.229 339.886 124.108C339.541 123.977 339.158 123.865 338.738 123.772C338.318 123.679 337.893 123.571 337.464 123.45C337.044 123.319 336.657 123.156 336.302 122.96C335.957 122.764 335.677 122.503 335.462 122.176C335.247 121.84 335.14 121.411 335.14 120.888C335.14 120.384 335.271 119.922 335.532 119.502C335.803 119.073 336.213 118.732 336.764 118.48C337.324 118.219 338.033 118.088 338.892 118.088C339.461 118.088 340.026 118.163 340.586 118.312C341.146 118.461 341.631 118.676 342.042 118.956L341.58 120.076C341.16 119.796 340.717 119.595 340.25 119.474C339.783 119.343 339.331 119.278 338.892 119.278C338.341 119.278 337.889 119.348 337.534 119.488C337.179 119.628 336.918 119.815 336.75 120.048C336.591 120.281 336.512 120.543 336.512 120.832C336.512 121.177 336.619 121.453 336.834 121.658C337.058 121.863 337.343 122.027 337.688 122.148C338.043 122.269 338.43 122.381 338.85 122.484C339.27 122.577 339.69 122.685 340.11 122.806C340.539 122.927 340.927 123.086 341.272 123.282C341.627 123.478 341.911 123.739 342.126 124.066C342.341 124.393 342.448 124.813 342.448 125.326C342.448 125.821 342.313 126.283 342.042 126.712C341.771 127.132 341.351 127.473 340.782 127.734C340.222 127.986 339.513 128.112 338.654 128.112ZM346.303 128V119.418H342.943V118.2H351.049V119.418H347.689V128H346.303ZM360.393 128.112C359.105 128.112 358.093 127.743 357.355 127.006C356.618 126.269 356.249 125.191 356.249 123.772V118.2H357.649V123.716C357.649 124.808 357.887 125.606 358.363 126.11C358.849 126.614 359.53 126.866 360.407 126.866C361.294 126.866 361.975 126.614 362.451 126.11C362.937 125.606 363.179 124.808 363.179 123.716V118.2H364.537V123.772C364.537 125.191 364.169 126.269 363.431 127.006C362.703 127.743 361.691 128.112 360.393 128.112ZM368.64 125.634L368.57 123.926L374.128 118.2H375.724L371.426 122.736L370.642 123.604L368.64 125.634ZM367.408 128V118.2H368.808V128H367.408ZM374.352 128L370.334 123.324L371.272 122.288L375.99 128H374.352ZM377.47 128V118.2H381.292C382.151 118.2 382.883 118.335 383.49 118.606C384.097 118.877 384.563 119.269 384.89 119.782C385.217 120.295 385.38 120.907 385.38 121.616C385.38 122.325 385.217 122.937 384.89 123.45C384.563 123.954 384.097 124.341 383.49 124.612C382.883 124.883 382.151 125.018 381.292 125.018H378.24L378.87 124.374V128H377.47ZM384.022 128L381.53 124.444H383.028L385.548 128H384.022ZM378.87 124.514L378.24 123.828H381.25C382.146 123.828 382.823 123.637 383.28 123.254C383.747 122.862 383.98 122.316 383.98 121.616C383.98 120.916 383.747 120.375 383.28 119.992C382.823 119.609 382.146 119.418 381.25 119.418H378.24L378.87 118.718V124.514ZM386.158 128L390.596 118.2H391.982L396.434 128H394.964L391.002 118.984H391.562L387.6 128H386.158ZM388.048 125.55L388.426 124.43H393.942L394.348 125.55H388.048ZM397.896 128V118.2H399.296V128H397.896ZM402.23 128V118.2H403.378L409.86 126.25H409.258V118.2H410.658V128H409.51L403.028 119.95H403.63V128H402.23ZM414.865 122.428H419.905V123.618H414.865V122.428ZM414.991 126.782H420.703V128H413.591V118.2H420.507V119.418H414.991V126.782ZM426.73 128V118.2H428.13V128H426.73ZM433.92 128.112C433.173 128.112 432.459 128 431.778 127.776C431.096 127.543 430.56 127.244 430.168 126.88L430.686 125.788C431.059 126.115 431.535 126.385 432.114 126.6C432.692 126.815 433.294 126.922 433.92 126.922C434.489 126.922 434.951 126.857 435.306 126.726C435.66 126.595 435.922 126.418 436.09 126.194C436.258 125.961 436.342 125.699 436.342 125.41C436.342 125.074 436.23 124.803 436.006 124.598C435.791 124.393 435.506 124.229 435.152 124.108C434.806 123.977 434.424 123.865 434.004 123.772C433.584 123.679 433.159 123.571 432.73 123.45C432.31 123.319 431.922 123.156 431.568 122.96C431.222 122.764 430.942 122.503 430.728 122.176C430.513 121.84 430.406 121.411 430.406 120.888C430.406 120.384 430.536 119.922 430.798 119.502C431.068 119.073 431.479 118.732 432.03 118.48C432.59 118.219 433.299 118.088 434.158 118.088C434.727 118.088 435.292 118.163 435.852 118.312C436.412 118.461 436.897 118.676 437.308 118.956L436.846 120.076C436.426 119.796 435.982 119.595 435.516 119.474C435.049 119.343 434.596 119.278 434.158 119.278C433.607 119.278 433.154 119.348 432.8 119.488C432.445 119.628 432.184 119.815 432.016 120.048C431.857 120.281 431.778 120.543 431.778 120.832C431.778 121.177 431.885 121.453 432.1 121.658C432.324 121.863 432.608 122.027 432.954 122.148C433.308 122.269 433.696 122.381 434.116 122.484C434.536 122.577 434.956 122.685 435.376 122.806C435.805 122.927 436.192 123.086 436.538 123.282C436.892 123.478 437.177 123.739 437.392 124.066C437.606 124.393 437.714 124.813 437.714 125.326C437.714 125.821 437.578 126.283 437.308 126.712C437.037 127.132 436.617 127.473 436.048 127.734C435.488 127.986 434.778 128.112 433.92 128.112ZM443.519 128V118.2H447.341C448.199 118.2 448.932 118.335 449.539 118.606C450.145 118.877 450.612 119.269 450.939 119.782C451.265 120.295 451.429 120.907 451.429 121.616C451.429 122.325 451.265 122.937 450.939 123.45C450.612 123.954 450.145 124.341 449.539 124.612C448.932 124.883 448.199 125.018 447.341 125.018H444.289L444.919 124.374V128H443.519ZM450.071 128L447.579 124.444H449.077L451.597 128H450.071ZM444.919 124.514L444.289 123.828H447.299C448.195 123.828 448.871 123.637 449.329 123.254C449.795 122.862 450.029 122.316 450.029 121.616C450.029 120.916 449.795 120.375 449.329 119.992C448.871 119.609 448.195 119.418 447.299 119.418H444.289L444.919 118.718V124.514ZM454.965 122.428H460.005V123.618H454.965V122.428ZM455.091 126.782H460.803V128H453.691V118.2H460.607V119.418H455.091V126.782ZM461.586 128L466.024 118.2H467.41L471.862 128H470.392L466.43 118.984H466.99L463.028 128H461.586ZM463.476 125.55L463.854 124.43H469.37L469.776 125.55H463.476ZM473.324 128V118.2H474.724V126.782H480.03V128H473.324ZM483.912 128L488.35 118.2H489.736L494.188 128H492.718L488.756 118.984H489.316L485.354 128H483.912ZM485.802 125.55L486.18 124.43H491.696L492.102 125.55H485.802ZM495.65 128V118.2H496.798L503.28 126.25H502.678V118.2H504.078V128H502.93L496.448 119.95H497.05V128H495.65ZM507.011 128V118.2H511.141C512.186 118.2 513.106 118.405 513.899 118.816C514.702 119.227 515.322 119.801 515.761 120.538C516.209 121.275 516.433 122.129 516.433 123.1C516.433 124.071 516.209 124.925 515.761 125.662C515.322 126.399 514.702 126.973 513.899 127.384C513.106 127.795 512.186 128 511.141 128H507.011ZM508.411 126.782H511.057C511.869 126.782 512.569 126.628 513.157 126.32C513.754 126.012 514.216 125.583 514.543 125.032C514.87 124.472 515.033 123.828 515.033 123.1C515.033 122.363 514.87 121.719 514.543 121.168C514.216 120.617 513.754 120.188 513.157 119.88C512.569 119.572 511.869 119.418 511.057 119.418H508.411V126.782ZM522.337 128V118.2H526.159C527.018 118.2 527.751 118.335 528.357 118.606C528.964 118.877 529.431 119.269 529.757 119.782C530.084 120.295 530.247 120.907 530.247 121.616C530.247 122.325 530.084 122.937 529.757 123.45C529.431 123.954 528.964 124.341 528.357 124.612C527.751 124.883 527.018 125.018 526.159 125.018H523.107L523.737 124.374V128H522.337ZM528.889 128L526.397 124.444H527.895L530.415 128H528.889ZM523.737 124.514L523.107 123.828H526.117C527.013 123.828 527.69 123.637 528.147 123.254C528.614 122.862 528.847 122.316 528.847 121.616C528.847 120.916 528.614 120.375 528.147 119.992C527.69 119.609 527.013 119.418 526.117 119.418H523.107L523.737 118.718V124.514ZM531.025 128L535.463 118.2H536.849L541.301 128H539.831L535.869 118.984H536.429L532.467 128H531.025ZM532.915 125.55L533.293 124.43H538.809L539.215 125.55H532.915ZM544.497 128L541.221 118.2H542.663L545.673 127.244H544.945L548.067 118.2H549.355L552.407 127.244H551.707L554.759 118.2H556.089L552.813 128H551.343L548.487 119.614H548.865L545.995 128H544.497ZM557.614 128.084C557.352 128.084 557.128 127.995 556.942 127.818C556.755 127.631 556.662 127.398 556.662 127.118C556.662 126.838 556.755 126.609 556.942 126.432C557.128 126.255 557.352 126.166 557.614 126.166C557.866 126.166 558.08 126.255 558.258 126.432C558.444 126.609 558.538 126.838 558.538 127.118C558.538 127.398 558.444 127.631 558.258 127.818C558.08 127.995 557.866 128.084 557.614 128.084ZM185.852 155.112C185.105 155.112 184.415 154.991 183.78 154.748C183.155 154.496 182.609 154.146 182.142 153.698C181.685 153.241 181.325 152.709 181.064 152.102C180.803 151.495 180.672 150.828 180.672 150.1C180.672 149.372 180.803 148.705 181.064 148.098C181.325 147.491 181.689 146.964 182.156 146.516C182.623 146.059 183.169 145.709 183.794 145.466C184.429 145.214 185.119 145.088 185.866 145.088C186.622 145.088 187.317 145.219 187.952 145.48C188.596 145.732 189.142 146.11 189.59 146.614L188.68 147.496C188.307 147.104 187.887 146.815 187.42 146.628C186.953 146.432 186.454 146.334 185.922 146.334C185.371 146.334 184.858 146.427 184.382 146.614C183.915 146.801 183.509 147.062 183.164 147.398C182.819 147.734 182.548 148.135 182.352 148.602C182.165 149.059 182.072 149.559 182.072 150.1C182.072 150.641 182.165 151.145 182.352 151.612C182.548 152.069 182.819 152.466 183.164 152.802C183.509 153.138 183.915 153.399 184.382 153.586C184.858 153.773 185.371 153.866 185.922 153.866C186.454 153.866 186.953 153.773 187.42 153.586C187.887 153.39 188.307 153.091 188.68 152.69L189.59 153.572C189.142 154.076 188.596 154.459 187.952 154.72C187.317 154.981 186.617 155.112 185.852 155.112ZM191.587 155V145.2H192.987V155H191.587ZM198.653 155L194.341 145.2H195.853L199.815 154.244H198.947L202.937 145.2H204.337L200.039 155H198.653ZM205.587 155V145.2H206.987V155H205.587ZM209.921 155V145.2H211.321V153.782H216.627V155H209.921ZM218.234 155V145.2H219.634V155H218.234ZM221.084 155L225.522 145.2H226.908L231.36 155H229.89L225.928 145.984H226.488L222.526 155H221.084ZM222.974 152.55L223.352 151.43H228.868L229.274 152.55H222.974ZM232.822 155V145.2H233.97L240.452 153.25H239.85V145.2H241.25V155H240.102L233.62 146.95H234.222V155H232.822ZM247.039 155.112C246.292 155.112 245.578 155 244.897 154.776C244.216 154.543 243.679 154.244 243.287 153.88L243.805 152.788C244.178 153.115 244.654 153.385 245.233 153.6C245.812 153.815 246.414 153.922 247.039 153.922C247.608 153.922 248.07 153.857 248.425 153.726C248.78 153.595 249.041 153.418 249.209 153.194C249.377 152.961 249.461 152.699 249.461 152.41C249.461 152.074 249.349 151.803 249.125 151.598C248.91 151.393 248.626 151.229 248.271 151.108C247.926 150.977 247.543 150.865 247.123 150.772C246.703 150.679 246.278 150.571 245.849 150.45C245.429 150.319 245.042 150.156 244.687 149.96C244.342 149.764 244.062 149.503 243.847 149.176C243.632 148.84 243.525 148.411 243.525 147.888C243.525 147.384 243.656 146.922 243.917 146.502C244.188 146.073 244.598 145.732 245.149 145.48C245.709 145.219 246.418 145.088 247.277 145.088C247.846 145.088 248.411 145.163 248.971 145.312C249.531 145.461 250.016 145.676 250.427 145.956L249.965 147.076C249.545 146.796 249.102 146.595 248.635 146.474C248.168 146.343 247.716 146.278 247.277 146.278C246.726 146.278 246.274 146.348 245.919 146.488C245.564 146.628 245.303 146.815 245.135 147.048C244.976 147.281 244.897 147.543 244.897 147.832C244.897 148.177 245.004 148.453 245.219 148.658C245.443 148.863 245.728 149.027 246.073 149.148C246.428 149.269 246.815 149.381 247.235 149.484C247.655 149.577 248.075 149.685 248.495 149.806C248.924 149.927 249.312 150.086 249.657 150.282C250.012 150.478 250.296 150.739 250.511 151.066C250.726 151.393 250.833 151.813 250.833 152.326C250.833 152.821 250.698 153.283 250.427 153.712C250.156 154.132 249.736 154.473 249.167 154.734C248.607 154.986 247.898 155.112 247.039 155.112ZM255.154 155L259.592 145.2H260.978L265.43 155H263.96L259.998 145.984H260.558L256.596 155H255.154ZM257.044 152.55L257.422 151.43H262.938L263.344 152.55H257.044ZM266.892 155V145.2H270.714C271.573 145.2 272.305 145.335 272.912 145.606C273.519 145.877 273.985 146.269 274.312 146.782C274.639 147.295 274.802 147.907 274.802 148.616C274.802 149.325 274.639 149.937 274.312 150.45C273.985 150.954 273.519 151.341 272.912 151.612C272.305 151.883 271.573 152.018 270.714 152.018H267.662L268.292 151.374V155H266.892ZM273.444 155L270.952 151.444H272.45L274.97 155H273.444ZM268.292 151.514L267.662 150.828H270.672C271.568 150.828 272.245 150.637 272.702 150.254C273.169 149.862 273.402 149.316 273.402 148.616C273.402 147.916 273.169 147.375 272.702 146.992C272.245 146.609 271.568 146.418 270.672 146.418H267.662L268.292 145.718V151.514ZM278.338 149.428H283.378V150.618H278.338V149.428ZM278.464 153.782H284.176V155H277.064V145.2H283.98V146.418H278.464V153.782ZM294.626 155.112C293.87 155.112 293.175 154.991 292.54 154.748C291.906 154.496 291.355 154.146 290.888 153.698C290.422 153.241 290.058 152.709 289.796 152.102C289.535 151.495 289.404 150.828 289.404 150.1C289.404 149.372 289.535 148.705 289.796 148.098C290.058 147.491 290.422 146.964 290.888 146.516C291.364 146.059 291.92 145.709 292.554 145.466C293.189 145.214 293.889 145.088 294.654 145.088C295.429 145.088 296.138 145.214 296.782 145.466C297.426 145.718 297.972 146.096 298.42 146.6L297.552 147.468C297.151 147.076 296.712 146.791 296.236 146.614C295.77 146.427 295.261 146.334 294.71 146.334C294.15 146.334 293.628 146.427 293.142 146.614C292.666 146.801 292.251 147.062 291.896 147.398C291.551 147.734 291.28 148.135 291.084 148.602C290.898 149.059 290.804 149.559 290.804 150.1C290.804 150.632 290.898 151.131 291.084 151.598C291.28 152.055 291.551 152.457 291.896 152.802C292.251 153.138 292.666 153.399 293.142 153.586C293.618 153.773 294.136 153.866 294.696 153.866C295.219 153.866 295.718 153.787 296.194 153.628C296.68 153.46 297.128 153.185 297.538 152.802L298.336 153.866C297.851 154.277 297.282 154.589 296.628 154.804C295.984 155.009 295.317 155.112 294.626 155.112ZM296.992 153.684V150.044H298.336V153.866L296.992 153.684ZM302.291 149.428H307.331V150.618H302.291V149.428ZM302.417 153.782H308.129V155H301.017V145.2H307.933V146.418H302.417V153.782ZM312.342 155V146.418H308.982V145.2H317.088V146.418H313.728V155H312.342ZM320.695 155V146.418H317.335V145.2H325.441V146.418H322.081V155H320.695ZM326.966 155V145.2H328.366V155H326.966ZM331.3 155V145.2H332.448L338.93 153.25H338.328V145.2H339.728V155H338.58L332.098 146.95H332.7V155H331.3ZM347.085 155.112C346.329 155.112 345.634 154.991 344.999 154.748C344.365 154.496 343.814 154.146 343.347 153.698C342.881 153.241 342.517 152.709 342.255 152.102C341.994 151.495 341.863 150.828 341.863 150.1C341.863 149.372 341.994 148.705 342.255 148.098C342.517 147.491 342.881 146.964 343.347 146.516C343.823 146.059 344.379 145.709 345.013 145.466C345.648 145.214 346.348 145.088 347.113 145.088C347.888 145.088 348.597 145.214 349.241 145.466C349.885 145.718 350.431 146.096 350.879 146.6L350.011 147.468C349.61 147.076 349.171 146.791 348.695 146.614C348.229 146.427 347.72 146.334 347.169 146.334C346.609 146.334 346.087 146.427 345.601 146.614C345.125 146.801 344.71 147.062 344.355 147.398C344.01 147.734 343.739 148.135 343.543 148.602C343.357 149.059 343.263 149.559 343.263 150.1C343.263 150.632 343.357 151.131 343.543 151.598C343.739 152.055 344.01 152.457 344.355 152.802C344.71 153.138 345.125 153.399 345.601 153.586C346.077 153.773 346.595 153.866 347.155 153.866C347.678 153.866 348.177 153.787 348.653 153.628C349.139 153.46 349.587 153.185 349.997 152.802L350.795 153.866C350.31 154.277 349.741 154.589 349.087 154.804C348.443 155.009 347.776 155.112 347.085 155.112ZM349.451 153.684V150.044H350.795V153.866L349.451 153.684ZM358.468 152.634L358.398 150.926L363.956 145.2H365.552L361.254 149.736L360.47 150.604L358.468 152.634ZM357.236 155V145.2H358.636V155H357.236ZM364.18 155L360.162 150.324L361.1 149.288L365.818 155H364.18ZM367.298 155V145.2H368.698V155H367.298ZM371.632 155V145.2H373.032V153.782H378.338V155H371.632ZM379.945 155V145.2H381.345V153.782H386.651V155H379.945ZM389.531 149.428H394.571V150.618H389.531V149.428ZM389.657 153.782H395.369V155H388.257V145.2H395.173V146.418H389.657V153.782ZM397.636 155V145.2H401.766C402.811 145.2 403.731 145.405 404.524 145.816C405.327 146.227 405.947 146.801 406.386 147.538C406.834 148.275 407.058 149.129 407.058 150.1C407.058 151.071 406.834 151.925 406.386 152.662C405.947 153.399 405.327 153.973 404.524 154.384C403.731 154.795 402.811 155 401.766 155H397.636ZM399.036 153.782H401.682C402.494 153.782 403.194 153.628 403.782 153.32C404.379 153.012 404.841 152.583 405.168 152.032C405.495 151.472 405.658 150.828 405.658 150.1C405.658 149.363 405.495 148.719 405.168 148.168C404.841 147.617 404.379 147.188 403.782 146.88C403.194 146.572 402.494 146.418 401.682 146.418H399.036V153.782ZM408.201 157.072L408.901 154.244L409.083 155.056C408.812 155.056 408.584 154.972 408.397 154.804C408.22 154.636 408.131 154.407 408.131 154.118C408.131 153.838 408.22 153.609 408.397 153.432C408.584 153.255 408.808 153.166 409.069 153.166C409.34 153.166 409.559 153.259 409.727 153.446C409.895 153.623 409.979 153.847 409.979 154.118C409.979 154.211 409.97 154.305 409.951 154.398C409.942 154.482 409.918 154.585 409.881 154.706C409.853 154.818 409.806 154.958 409.741 155.126L409.083 157.072H408.201ZM417.121 149.834H422.175V151.038H417.121V149.834ZM417.261 155H415.861V145.2H422.777V146.418H417.261V155ZM422.812 155L427.25 145.2H428.636L433.088 155H431.618L427.656 145.984H428.216L424.254 155H422.812ZM424.702 152.55L425.08 151.43H430.596L431.002 152.55H424.702ZM434.55 155V145.2H435.698L440.094 152.606H439.478L443.818 145.2H444.966L444.98 155H443.636L443.622 147.314H443.944L440.08 153.81H439.436L435.544 147.314H435.894V155H434.55ZM447.921 155V145.2H449.321V155H447.921ZM452.255 155V145.2H453.655V153.782H458.961V155H452.255ZM460.568 155V145.2H461.968V155H460.568ZM466.176 149.428H471.216V150.618H466.176V149.428ZM466.302 153.782H472.014V155H464.902V145.2H471.818V146.418H466.302V153.782ZM477.137 155.112C476.39 155.112 475.676 155 474.995 154.776C474.313 154.543 473.777 154.244 473.385 153.88L473.903 152.788C474.276 153.115 474.752 153.385 475.331 153.6C475.909 153.815 476.511 153.922 477.137 153.922C477.706 153.922 478.168 153.857 478.523 153.726C478.877 153.595 479.139 153.418 479.307 153.194C479.475 152.961 479.559 152.699 479.559 152.41C479.559 152.074 479.447 151.803 479.223 151.598C479.008 151.393 478.723 151.229 478.369 151.108C478.023 150.977 477.641 150.865 477.221 150.772C476.801 150.679 476.376 150.571 475.947 150.45C475.527 150.319 475.139 150.156 474.785 149.96C474.439 149.764 474.159 149.503 473.945 149.176C473.73 148.84 473.623 148.411 473.623 147.888C473.623 147.384 473.753 146.922 474.015 146.502C474.285 146.073 474.696 145.732 475.247 145.48C475.807 145.219 476.516 145.088 477.375 145.088C477.944 145.088 478.509 145.163 479.069 145.312C479.629 145.461 480.114 145.676 480.525 145.956L480.063 147.076C479.643 146.796 479.199 146.595 478.733 146.474C478.266 146.343 477.813 146.278 477.375 146.278C476.824 146.278 476.371 146.348 476.017 146.488C475.662 146.628 475.401 146.815 475.233 147.048C475.074 147.281 474.995 147.543 474.995 147.832C474.995 148.177 475.102 148.453 475.317 148.658C475.541 148.863 475.825 149.027 476.171 149.148C476.525 149.269 476.913 149.381 477.333 149.484C477.753 149.577 478.173 149.685 478.593 149.806C479.022 149.927 479.409 150.086 479.755 150.282C480.109 150.478 480.394 150.739 480.609 151.066C480.823 151.393 480.931 151.813 480.931 152.326C480.931 152.821 480.795 153.283 480.525 153.712C480.254 154.132 479.834 154.473 479.265 154.734C478.705 154.986 477.995 155.112 477.137 155.112ZM486.736 155V145.2H490.866C491.911 145.2 492.83 145.405 493.624 145.816C494.426 146.227 495.047 146.801 495.486 147.538C495.934 148.275 496.158 149.129 496.158 150.1C496.158 151.071 495.934 151.925 495.486 152.662C495.047 153.399 494.426 153.973 493.624 154.384C492.83 154.795 491.911 155 490.866 155H486.736ZM488.136 153.782H490.782C491.594 153.782 492.294 153.628 492.882 153.32C493.479 153.012 493.941 152.583 494.268 152.032C494.594 151.472 494.758 150.828 494.758 150.1C494.758 149.363 494.594 148.719 494.268 148.168C493.941 147.617 493.479 147.188 492.882 146.88C492.294 146.572 491.594 146.418 490.782 146.418H488.136V153.782ZM499.576 149.428H504.616V150.618H499.576V149.428ZM499.702 153.782H505.414V155H498.302V145.2H505.218V146.418H499.702V153.782ZM510.537 155.112C509.79 155.112 509.076 155 508.395 154.776C507.714 154.543 507.177 154.244 506.785 153.88L507.303 152.788C507.676 153.115 508.152 153.385 508.731 153.6C509.31 153.815 509.912 153.922 510.537 153.922C511.106 153.922 511.568 153.857 511.923 153.726C512.278 153.595 512.539 153.418 512.707 153.194C512.875 152.961 512.959 152.699 512.959 152.41C512.959 152.074 512.847 151.803 512.623 151.598C512.408 151.393 512.124 151.229 511.769 151.108C511.424 150.977 511.041 150.865 510.621 150.772C510.201 150.679 509.776 150.571 509.347 150.45C508.927 150.319 508.54 150.156 508.185 149.96C507.84 149.764 507.56 149.503 507.345 149.176C507.13 148.84 507.023 148.411 507.023 147.888C507.023 147.384 507.154 146.922 507.415 146.502C507.686 146.073 508.096 145.732 508.647 145.48C509.207 145.219 509.916 145.088 510.775 145.088C511.344 145.088 511.909 145.163 512.469 145.312C513.029 145.461 513.514 145.676 513.925 145.956L513.463 147.076C513.043 146.796 512.6 146.595 512.133 146.474C511.666 146.343 511.214 146.278 510.775 146.278C510.224 146.278 509.772 146.348 509.417 146.488C509.062 146.628 508.801 146.815 508.633 147.048C508.474 147.281 508.395 147.543 508.395 147.832C508.395 148.177 508.502 148.453 508.717 148.658C508.941 148.863 509.226 149.027 509.571 149.148C509.926 149.269 510.313 149.381 510.733 149.484C511.153 149.577 511.573 149.685 511.993 149.806C512.422 149.927 512.81 150.086 513.155 150.282C513.51 150.478 513.794 150.739 514.009 151.066C514.224 151.393 514.331 151.813 514.331 152.326C514.331 152.821 514.196 153.283 513.925 153.712C513.654 154.132 513.234 154.473 512.665 154.734C512.105 154.986 511.396 155.112 510.537 155.112ZM518.186 155V146.418H514.826V145.2H522.932V146.418H519.572V155H518.186ZM524.456 155V145.2H528.278C529.137 145.2 529.87 145.335 530.476 145.606C531.083 145.877 531.55 146.269 531.876 146.782C532.203 147.295 532.366 147.907 532.366 148.616C532.366 149.325 532.203 149.937 531.876 150.45C531.55 150.954 531.083 151.341 530.476 151.612C529.87 151.883 529.137 152.018 528.278 152.018H525.226L525.856 151.374V155H524.456ZM531.008 155L528.516 151.444H530.014L532.534 155H531.008ZM525.856 151.514L525.226 150.828H528.236C529.132 150.828 529.809 150.637 530.266 150.254C530.733 149.862 530.966 149.316 530.966 148.616C530.966 147.916 530.733 147.375 530.266 146.992C529.809 146.609 529.132 146.418 528.236 146.418H525.226L525.856 145.718V151.514ZM539.052 155.112C538.306 155.112 537.61 154.986 536.966 154.734C536.332 154.482 535.781 154.132 535.314 153.684C534.848 153.227 534.484 152.695 534.222 152.088C533.961 151.481 533.83 150.819 533.83 150.1C533.83 149.381 533.961 148.719 534.222 148.112C534.484 147.505 534.848 146.978 535.314 146.53C535.781 146.073 536.332 145.718 536.966 145.466C537.601 145.214 538.296 145.088 539.052 145.088C539.799 145.088 540.485 145.214 541.11 145.466C541.745 145.709 542.296 146.059 542.762 146.516C543.238 146.964 543.602 147.491 543.854 148.098C544.116 148.705 544.246 149.372 544.246 150.1C544.246 150.828 544.116 151.495 543.854 152.102C543.602 152.709 543.238 153.241 542.762 153.698C542.296 154.146 541.745 154.496 541.11 154.748C540.485 154.991 539.799 155.112 539.052 155.112ZM539.052 153.866C539.594 153.866 540.093 153.773 540.55 153.586C541.017 153.399 541.418 153.138 541.754 152.802C542.1 152.457 542.366 152.055 542.552 151.598C542.748 151.141 542.846 150.641 542.846 150.1C542.846 149.559 542.748 149.059 542.552 148.602C542.366 148.145 542.1 147.748 541.754 147.412C541.418 147.067 541.017 146.801 540.55 146.614C540.093 146.427 539.594 146.334 539.052 146.334C538.502 146.334 537.993 146.427 537.526 146.614C537.069 146.801 536.668 147.067 536.322 147.412C535.977 147.748 535.706 148.145 535.51 148.602C535.324 149.059 535.23 149.559 535.23 150.1C535.23 150.641 535.324 151.141 535.51 151.598C535.706 152.055 535.977 152.457 536.322 152.802C536.668 153.138 537.069 153.399 537.526 153.586C537.993 153.773 538.502 153.866 539.052 153.866ZM548.328 155V151.248L548.65 152.116L544.436 145.2H545.934L549.476 151.038H548.664L552.22 145.2H553.606L549.406 152.116L549.714 151.248V155H548.328ZM556.137 149.428H561.177V150.618H556.137V149.428ZM556.263 153.782H561.975V155H554.863V145.2H561.779V146.418H556.263V153.782ZM564.241 155V145.2H568.371C569.417 145.2 570.336 145.405 571.129 145.816C571.932 146.227 572.553 146.801 572.991 147.538C573.439 148.275 573.663 149.129 573.663 150.1C573.663 151.071 573.439 151.925 572.991 152.662C572.553 153.399 571.932 153.973 571.129 154.384C570.336 154.795 569.417 155 568.371 155H564.241ZM565.641 153.782H568.287C569.099 153.782 569.799 153.628 570.387 153.32C570.985 153.012 571.447 152.583 571.773 152.032C572.1 151.472 572.263 150.828 572.263 150.1C572.263 149.363 572.1 148.719 571.773 148.168C571.447 147.617 570.985 147.188 570.387 146.88C569.799 146.572 569.099 146.418 568.287 146.418H565.641V153.782ZM574.806 157.072L575.506 154.244L575.688 155.056C575.418 155.056 575.189 154.972 575.002 154.804C574.825 154.636 574.736 154.407 574.736 154.118C574.736 153.838 574.825 153.609 575.002 153.432C575.189 153.255 575.413 153.166 575.674 153.166C575.945 153.166 576.164 153.259 576.332 153.446C576.5 153.623 576.584 153.847 576.584 154.118C576.584 154.211 576.575 154.305 576.556 154.398C576.547 154.482 576.524 154.585 576.486 154.706C576.458 154.818 576.412 154.958 576.346 155.126L575.688 157.072H574.806ZM589.494 145.2H590.894V155H589.494V145.2ZM583.866 155H582.466V145.2H583.866V155ZM589.62 150.632H583.726V149.414H589.62V150.632ZM598.251 155.112C597.505 155.112 596.809 154.986 596.165 154.734C595.531 154.482 594.98 154.132 594.513 153.684C594.047 153.227 593.683 152.695 593.421 152.088C593.16 151.481 593.029 150.819 593.029 150.1C593.029 149.381 593.16 148.719 593.421 148.112C593.683 147.505 594.047 146.978 594.513 146.53C594.98 146.073 595.531 145.718 596.165 145.466C596.8 145.214 597.495 145.088 598.251 145.088C598.998 145.088 599.684 145.214 600.309 145.466C600.944 145.709 601.495 146.059 601.961 146.516C602.437 146.964 602.801 147.491 603.053 148.098C603.315 148.705 603.445 149.372 603.445 150.1C603.445 150.828 603.315 151.495 603.053 152.102C602.801 152.709 602.437 153.241 601.961 153.698C601.495 154.146 600.944 154.496 600.309 154.748C599.684 154.991 598.998 155.112 598.251 155.112ZM598.251 153.866C598.793 153.866 599.292 153.773 599.749 153.586C600.216 153.399 600.617 153.138 600.953 152.802C601.299 152.457 601.565 152.055 601.751 151.598C601.947 151.141 602.045 150.641 602.045 150.1C602.045 149.559 601.947 149.059 601.751 148.602C601.565 148.145 601.299 147.748 600.953 147.412C600.617 147.067 600.216 146.801 599.749 146.614C599.292 146.427 598.793 146.334 598.251 146.334C597.701 146.334 597.192 146.427 596.725 146.614C596.268 146.801 595.867 147.067 595.521 147.412C595.176 147.748 594.905 148.145 594.709 148.602C594.523 149.059 594.429 149.559 594.429 150.1C594.429 150.641 594.523 151.141 594.709 151.598C594.905 152.055 595.176 152.457 595.521 152.802C595.867 153.138 596.268 153.399 596.725 153.586C597.192 153.773 597.701 153.866 598.251 153.866ZM605.585 155V145.2H606.733L611.129 152.606H610.513L614.853 145.2H616.001L616.015 155H614.671L614.657 147.314H614.979L611.115 153.81H610.471L606.579 147.314H606.929V155H605.585ZM620.23 149.428H625.27V150.618H620.23V149.428ZM620.356 153.782H626.068V155H618.956V145.2H625.872V146.418H620.356V153.782ZM631.191 155.112C630.445 155.112 629.731 155 629.049 154.776C628.368 154.543 627.831 154.244 627.439 153.88L627.957 152.788C628.331 153.115 628.807 153.385 629.385 153.6C629.964 153.815 630.566 153.922 631.191 153.922C631.761 153.922 632.223 153.857 632.577 153.726C632.932 153.595 633.193 153.418 633.361 153.194C633.529 152.961 633.613 152.699 633.613 152.41C633.613 152.074 633.501 151.803 633.277 151.598C633.063 151.393 632.778 151.229 632.423 151.108C632.078 150.977 631.695 150.865 631.275 150.772C630.855 150.679 630.431 150.571 630.001 150.45C629.581 150.319 629.194 150.156 628.839 149.96C628.494 149.764 628.214 149.503 627.999 149.176C627.785 148.84 627.677 148.411 627.677 147.888C627.677 147.384 627.808 146.922 628.069 146.502C628.34 146.073 628.751 145.732 629.301 145.48C629.861 145.219 630.571 145.088 631.429 145.088C631.999 145.088 632.563 145.163 633.123 145.312C633.683 145.461 634.169 145.676 634.579 145.956L634.117 147.076C633.697 146.796 633.254 146.595 632.787 146.474C632.321 146.343 631.868 146.278 631.429 146.278C630.879 146.278 630.426 146.348 630.071 146.488C629.717 146.628 629.455 146.815 629.287 147.048C629.129 147.281 629.049 147.543 629.049 147.832C629.049 148.177 629.157 148.453 629.371 148.658C629.595 148.863 629.88 149.027 630.225 149.148C630.58 149.269 630.967 149.381 631.387 149.484C631.807 149.577 632.227 149.685 632.647 149.806C633.077 149.927 633.464 150.086 633.809 150.282C634.164 150.478 634.449 150.739 634.663 151.066C634.878 151.393 634.985 151.813 634.985 152.326C634.985 152.821 634.85 153.283 634.579 153.712C634.309 154.132 633.889 154.473 633.319 154.734C632.759 154.986 632.05 155.112 631.191 155.112ZM643.044 155L639.768 145.2H641.21L644.22 154.244H643.492L646.614 145.2H647.902L650.954 154.244H650.254L653.306 145.2H654.636L651.36 155H649.89L647.034 146.614H647.412L644.542 155H643.044ZM656.349 155V145.2H660.171C661.03 145.2 661.762 145.335 662.369 145.606C662.976 145.877 663.442 146.269 663.769 146.782C664.096 147.295 664.259 147.907 664.259 148.616C664.259 149.325 664.096 149.937 663.769 150.45C663.442 150.954 662.976 151.341 662.369 151.612C661.762 151.883 661.03 152.018 660.171 152.018H657.119L657.749 151.374V155H656.349ZM662.901 155L660.409 151.444H661.907L664.427 155H662.901ZM657.749 151.514L657.119 150.828H660.129C661.025 150.828 661.702 150.637 662.159 150.254C662.626 149.862 662.859 149.316 662.859 148.616C662.859 147.916 662.626 147.375 662.159 146.992C661.702 146.609 661.025 146.418 660.129 146.418H657.119L657.749 145.718V151.514ZM667.795 149.428H672.835V150.618H667.795V149.428ZM667.921 153.782H673.633V155H666.521V145.2H673.437V146.418H667.921V153.782ZM680.268 155.112C679.521 155.112 678.831 154.991 678.196 154.748C677.571 154.496 677.025 154.146 676.558 153.698C676.101 153.241 675.741 152.709 675.48 152.102C675.219 151.495 675.088 150.828 675.088 150.1C675.088 149.372 675.219 148.705 675.48 148.098C675.741 147.491 676.105 146.964 676.572 146.516C677.039 146.059 677.585 145.709 678.21 145.466C678.845 145.214 679.535 145.088 680.282 145.088C681.038 145.088 681.733 145.219 682.368 145.48C683.012 145.732 683.558 146.11 684.006 146.614L683.096 147.496C682.723 147.104 682.303 146.815 681.836 146.628C681.369 146.432 680.87 146.334 680.338 146.334C679.787 146.334 679.274 146.427 678.798 146.614C678.331 146.801 677.925 147.062 677.58 147.398C677.235 147.734 676.964 148.135 676.768 148.602C676.581 149.059 676.488 149.559 676.488 150.1C676.488 150.641 676.581 151.145 676.768 151.612C676.964 152.069 677.235 152.466 677.58 152.802C677.925 153.138 678.331 153.399 678.798 153.586C679.274 153.773 679.787 153.866 680.338 153.866C680.87 153.866 681.369 153.773 681.836 153.586C682.303 153.39 682.723 153.091 683.096 152.69L684.006 153.572C683.558 154.076 683.012 154.459 682.368 154.72C681.733 154.981 681.033 155.112 680.268 155.112ZM687.235 152.634L687.165 150.926L692.723 145.2H694.319L690.021 149.736L689.237 150.604L687.235 152.634ZM686.003 155V145.2H687.403V155H686.003ZM692.947 155L688.929 150.324L689.867 149.288L694.585 155H692.947ZM697.34 149.428H702.38V150.618H697.34V149.428ZM697.466 153.782H703.178V155H696.066V145.2H702.982V146.418H697.466V153.782ZM705.445 155V145.2H709.575C710.62 145.2 711.539 145.405 712.333 145.816C713.135 146.227 713.756 146.801 714.195 147.538C714.643 148.275 714.867 149.129 714.867 150.1C714.867 151.071 714.643 151.925 714.195 152.662C713.756 153.399 713.135 153.973 712.333 154.384C711.539 154.795 710.62 155 709.575 155H705.445ZM706.845 153.782H709.491C710.303 153.782 711.003 153.628 711.591 153.32C712.188 153.012 712.65 152.583 712.977 152.032C713.303 151.472 713.467 150.828 713.467 150.1C713.467 149.363 713.303 148.719 712.977 148.168C712.65 147.617 712.188 147.188 711.591 146.88C711.003 146.572 710.303 146.418 709.491 146.418H706.845V153.782ZM716.864 155.084C716.602 155.084 716.378 154.995 716.192 154.818C716.005 154.631 715.912 154.398 715.912 154.118C715.912 153.838 716.005 153.609 716.192 153.432C716.378 153.255 716.602 153.166 716.864 153.166C717.116 153.166 717.33 153.255 717.508 153.432C717.694 153.609 717.788 153.838 717.788 154.118C717.788 154.398 717.694 154.631 717.508 154.818C717.33 154.995 717.116 155.084 716.864 155.084ZM185.894 182.112C185.147 182.112 184.452 181.986 183.808 181.734C183.173 181.482 182.623 181.132 182.156 180.684C181.689 180.227 181.325 179.695 181.064 179.088C180.803 178.481 180.672 177.819 180.672 177.1C180.672 176.381 180.803 175.719 181.064 175.112C181.325 174.505 181.689 173.978 182.156 173.53C182.623 173.073 183.173 172.718 183.808 172.466C184.443 172.214 185.138 172.088 185.894 172.088C186.641 172.088 187.327 172.214 187.952 172.466C188.587 172.709 189.137 173.059 189.604 173.516C190.08 173.964 190.444 174.491 190.696 175.098C190.957 175.705 191.088 176.372 191.088 177.1C191.088 177.828 190.957 178.495 190.696 179.102C190.444 179.709 190.08 180.241 189.604 180.698C189.137 181.146 188.587 181.496 187.952 181.748C187.327 181.991 186.641 182.112 185.894 182.112ZM185.894 180.866C186.435 180.866 186.935 180.773 187.392 180.586C187.859 180.399 188.26 180.138 188.596 179.802C188.941 179.457 189.207 179.055 189.394 178.598C189.59 178.141 189.688 177.641 189.688 177.1C189.688 176.559 189.59 176.059 189.394 175.602C189.207 175.145 188.941 174.748 188.596 174.412C188.26 174.067 187.859 173.801 187.392 173.614C186.935 173.427 186.435 173.334 185.894 173.334C185.343 173.334 184.835 173.427 184.368 173.614C183.911 173.801 183.509 174.067 183.164 174.412C182.819 174.748 182.548 175.145 182.352 175.602C182.165 176.059 182.072 176.559 182.072 177.1C182.072 177.641 182.165 178.141 182.352 178.598C182.548 179.055 182.819 179.457 183.164 179.802C183.509 180.138 183.911 180.399 184.368 180.586C184.835 180.773 185.343 180.866 185.894 180.866ZM197.288 182.112C196 182.112 194.987 181.743 194.25 181.006C193.512 180.269 193.144 179.191 193.144 177.772V172.2H194.544V177.716C194.544 178.808 194.782 179.606 195.258 180.11C195.743 180.614 196.424 180.866 197.302 180.866C198.188 180.866 198.87 180.614 199.346 180.11C199.831 179.606 200.074 178.808 200.074 177.716V172.2H201.432V177.772C201.432 179.191 201.063 180.269 200.326 181.006C199.598 181.743 198.585 182.112 197.288 182.112ZM204.302 182V172.2H208.124C208.983 172.2 209.715 172.335 210.322 172.606C210.929 172.877 211.395 173.269 211.722 173.782C212.049 174.295 212.212 174.907 212.212 175.616C212.212 176.325 212.049 176.937 211.722 177.45C211.395 177.954 210.929 178.341 210.322 178.612C209.715 178.883 208.983 179.018 208.124 179.018H205.072L205.702 178.374V182H204.302ZM210.854 182L208.362 178.444H209.86L212.38 182H210.854ZM205.702 178.514L205.072 177.828H208.082C208.978 177.828 209.655 177.637 210.112 177.254C210.579 176.862 210.812 176.316 210.812 175.616C210.812 174.916 210.579 174.375 210.112 173.992C209.655 173.609 208.978 173.418 208.082 173.418H205.072L205.702 172.718V178.514ZM225.262 172.2H226.662V182H225.262V172.2ZM219.634 182H218.234V172.2H219.634V182ZM225.388 177.632H219.494V176.414H225.388V177.632ZM230.869 176.428H235.909V177.618H230.869V176.428ZM230.995 180.782H236.707V182H229.595V172.2H236.511V173.418H230.995V180.782ZM237.49 182L241.928 172.2H243.314L247.766 182H246.296L242.334 172.984H242.894L238.932 182H237.49ZM239.38 179.55L239.758 178.43H245.274L245.68 179.55H239.38ZM249.228 182V172.2H253.05C253.908 172.2 254.641 172.335 255.248 172.606C255.854 172.877 256.321 173.269 256.648 173.782C256.974 174.295 257.138 174.907 257.138 175.616C257.138 176.325 256.974 176.937 256.648 177.45C256.321 177.954 255.854 178.341 255.248 178.612C254.641 178.883 253.908 179.018 253.05 179.018H249.998L250.628 178.374V182H249.228ZM255.78 182L253.288 178.444H254.786L257.306 182H255.78ZM250.628 178.514L249.998 177.828H253.008C253.904 177.828 254.58 177.637 255.038 177.254C255.504 176.862 255.738 176.316 255.738 175.616C255.738 174.916 255.504 174.375 255.038 173.992C254.58 173.609 253.904 173.418 253.008 173.418H249.998L250.628 172.718V178.514ZM261.209 182V173.418H257.849V172.2H265.955V173.418H262.595V182H261.209ZM270.213 182.112C269.466 182.112 268.752 182 268.071 181.776C267.389 181.543 266.853 181.244 266.461 180.88L266.979 179.788C267.352 180.115 267.828 180.385 268.407 180.6C268.985 180.815 269.587 180.922 270.213 180.922C270.782 180.922 271.244 180.857 271.599 180.726C271.953 180.595 272.215 180.418 272.383 180.194C272.551 179.961 272.635 179.699 272.635 179.41C272.635 179.074 272.523 178.803 272.299 178.598C272.084 178.393 271.799 178.229 271.445 178.108C271.099 177.977 270.717 177.865 270.297 177.772C269.877 177.679 269.452 177.571 269.023 177.45C268.603 177.319 268.215 177.156 267.861 176.96C267.515 176.764 267.235 176.503 267.021 176.176C266.806 175.84 266.699 175.411 266.699 174.888C266.699 174.384 266.829 173.922 267.091 173.502C267.361 173.073 267.772 172.732 268.323 172.48C268.883 172.219 269.592 172.088 270.451 172.088C271.02 172.088 271.585 172.163 272.145 172.312C272.705 172.461 273.19 172.676 273.601 172.956L273.139 174.076C272.719 173.796 272.275 173.595 271.809 173.474C271.342 173.343 270.889 173.278 270.451 173.278C269.9 173.278 269.447 173.348 269.093 173.488C268.738 173.628 268.477 173.815 268.309 174.048C268.15 174.281 268.071 174.543 268.071 174.832C268.071 175.177 268.178 175.453 268.393 175.658C268.617 175.863 268.901 176.027 269.247 176.148C269.601 176.269 269.989 176.381 270.409 176.484C270.829 176.577 271.249 176.685 271.669 176.806C272.098 176.927 272.485 177.086 272.831 177.282C273.185 177.478 273.47 177.739 273.685 178.066C273.899 178.393 274.007 178.813 274.007 179.326C274.007 179.821 273.871 180.283 273.601 180.712C273.33 181.132 272.91 181.473 272.341 181.734C271.781 181.986 271.071 182.112 270.213 182.112ZM278.328 182L282.766 172.2H284.152L288.604 182H287.134L283.172 172.984H283.732L279.77 182H278.328ZM280.218 179.55L280.596 178.43H286.112L286.518 179.55H280.218ZM290.066 182V172.2H293.888C294.746 172.2 295.479 172.335 296.086 172.606C296.692 172.877 297.159 173.269 297.486 173.782C297.812 174.295 297.976 174.907 297.976 175.616C297.976 176.325 297.812 176.937 297.486 177.45C297.159 177.954 296.692 178.341 296.086 178.612C295.479 178.883 294.746 179.018 293.888 179.018H290.836L291.466 178.374V182H290.066ZM296.618 182L294.126 178.444H295.624L298.144 182H296.618ZM291.466 178.514L290.836 177.828H293.846C294.742 177.828 295.418 177.637 295.876 177.254C296.342 176.862 296.576 176.316 296.576 175.616C296.576 174.916 296.342 174.375 295.876 173.992C295.418 173.609 294.742 173.418 293.846 173.418H290.836L291.466 172.718V178.514ZM301.512 176.428H306.552V177.618H301.512V176.428ZM301.638 180.782H307.35V182H300.238V172.2H307.154V173.418H301.638V180.782ZM315.63 182L312.354 172.2H313.796L316.806 181.244H316.078L319.2 172.2H320.488L323.54 181.244H322.84L325.892 172.2H327.222L323.946 182H322.476L319.62 173.614H319.998L317.128 182H315.63ZM328.935 182V172.2H330.335V182H328.935ZM335.215 182V173.418H331.855V172.2H339.961V173.418H336.601V182H335.215ZM348.514 172.2H349.914V182H348.514V172.2ZM342.886 182H341.486V172.2H342.886V182ZM348.64 177.632H342.746V176.414H348.64V177.632ZM358.553 182V173.418H355.193V172.2H363.299V173.418H359.939V182H358.553ZM371.852 172.2H373.252V182H371.852V172.2ZM366.224 182H364.824V172.2H366.224V182ZM371.978 177.632H366.084V176.414H371.978V177.632ZM380.609 182.112C379.862 182.112 379.167 181.986 378.523 181.734C377.888 181.482 377.338 181.132 376.871 180.684C376.404 180.227 376.04 179.695 375.779 179.088C375.518 178.481 375.387 177.819 375.387 177.1C375.387 176.381 375.518 175.719 375.779 175.112C376.04 174.505 376.404 173.978 376.871 173.53C377.338 173.073 377.888 172.718 378.523 172.466C379.158 172.214 379.853 172.088 380.609 172.088C381.356 172.088 382.042 172.214 382.667 172.466C383.302 172.709 383.852 173.059 384.319 173.516C384.795 173.964 385.159 174.491 385.411 175.098C385.672 175.705 385.803 176.372 385.803 177.1C385.803 177.828 385.672 178.495 385.411 179.102C385.159 179.709 384.795 180.241 384.319 180.698C383.852 181.146 383.302 181.496 382.667 181.748C382.042 181.991 381.356 182.112 380.609 182.112ZM380.609 180.866C381.15 180.866 381.65 180.773 382.107 180.586C382.574 180.399 382.975 180.138 383.311 179.802C383.656 179.457 383.922 179.055 384.109 178.598C384.305 178.141 384.403 177.641 384.403 177.1C384.403 176.559 384.305 176.059 384.109 175.602C383.922 175.145 383.656 174.748 383.311 174.412C382.975 174.067 382.574 173.801 382.107 173.614C381.65 173.427 381.15 173.334 380.609 173.334C380.058 173.334 379.55 173.427 379.083 173.614C378.626 173.801 378.224 174.067 377.879 174.412C377.534 174.748 377.263 175.145 377.067 175.602C376.88 176.059 376.787 176.559 376.787 177.1C376.787 177.641 376.88 178.141 377.067 178.598C377.263 179.055 377.534 179.457 377.879 179.802C378.224 180.138 378.626 180.399 379.083 180.586C379.55 180.773 380.058 180.866 380.609 180.866ZM390.799 182.112C390.052 182.112 389.338 182 388.657 181.776C387.975 181.543 387.439 181.244 387.047 180.88L387.565 179.788C387.938 180.115 388.414 180.385 388.993 180.6C389.571 180.815 390.173 180.922 390.799 180.922C391.368 180.922 391.83 180.857 392.185 180.726C392.539 180.595 392.801 180.418 392.969 180.194C393.137 179.961 393.221 179.699 393.221 179.41C393.221 179.074 393.109 178.803 392.885 178.598C392.67 178.393 392.385 178.229 392.031 178.108C391.685 177.977 391.303 177.865 390.883 177.772C390.463 177.679 390.038 177.571 389.609 177.45C389.189 177.319 388.801 177.156 388.447 176.96C388.101 176.764 387.821 176.503 387.607 176.176C387.392 175.84 387.285 175.411 387.285 174.888C387.285 174.384 387.415 173.922 387.677 173.502C387.947 173.073 388.358 172.732 388.909 172.48C389.469 172.219 390.178 172.088 391.037 172.088C391.606 172.088 392.171 172.163 392.731 172.312C393.291 172.461 393.776 172.676 394.187 172.956L393.725 174.076C393.305 173.796 392.861 173.595 392.395 173.474C391.928 173.343 391.475 173.278 391.037 173.278C390.486 173.278 390.033 173.348 389.679 173.488C389.324 173.628 389.063 173.815 388.895 174.048C388.736 174.281 388.657 174.543 388.657 174.832C388.657 175.177 388.764 175.453 388.979 175.658C389.203 175.863 389.487 176.027 389.833 176.148C390.187 176.269 390.575 176.381 390.995 176.484C391.415 176.577 391.835 176.685 392.255 176.806C392.684 176.927 393.071 177.086 393.417 177.282C393.771 177.478 394.056 177.739 394.271 178.066C394.485 178.393 394.593 178.813 394.593 179.326C394.593 179.821 394.457 180.283 394.187 180.712C393.916 181.132 393.496 181.473 392.927 181.734C392.367 181.986 391.657 182.112 390.799 182.112ZM397.912 176.428H402.952V177.618H397.912V176.428ZM398.038 180.782H403.75V182H396.638V172.2H403.554V173.418H398.038V180.782ZM412.031 182L408.755 172.2H410.197L413.207 181.244H412.479L415.601 172.2H416.889L419.941 181.244H419.241L422.293 172.2H423.623L420.347 182H418.877L416.021 173.614H416.399L413.529 182H412.031ZM432.363 172.2H433.763V182H432.363V172.2ZM426.735 182H425.335V172.2H426.735V182ZM432.489 177.632H426.595V176.414H432.489V177.632ZM441.121 182.112C440.374 182.112 439.679 181.986 439.035 181.734C438.4 181.482 437.849 181.132 437.383 180.684C436.916 180.227 436.552 179.695 436.291 179.088C436.029 178.481 435.899 177.819 435.899 177.1C435.899 176.381 436.029 175.719 436.291 175.112C436.552 174.505 436.916 173.978 437.383 173.53C437.849 173.073 438.4 172.718 439.035 172.466C439.669 172.214 440.365 172.088 441.121 172.088C441.867 172.088 442.553 172.214 443.179 172.466C443.813 172.709 444.364 173.059 444.831 173.516C445.307 173.964 445.671 174.491 445.923 175.098C446.184 175.705 446.315 176.372 446.315 177.1C446.315 177.828 446.184 178.495 445.923 179.102C445.671 179.709 445.307 180.241 444.831 180.698C444.364 181.146 443.813 181.496 443.179 181.748C442.553 181.991 441.867 182.112 441.121 182.112ZM441.121 180.866C441.662 180.866 442.161 180.773 442.619 180.586C443.085 180.399 443.487 180.138 443.823 179.802C444.168 179.457 444.434 179.055 444.621 178.598C444.817 178.141 444.915 177.641 444.915 177.1C444.915 176.559 444.817 176.059 444.621 175.602C444.434 175.145 444.168 174.748 443.823 174.412C443.487 174.067 443.085 173.801 442.619 173.614C442.161 173.427 441.662 173.334 441.121 173.334C440.57 173.334 440.061 173.427 439.595 173.614C439.137 173.801 438.736 174.067 438.391 174.412C438.045 174.748 437.775 175.145 437.579 175.602C437.392 176.059 437.299 176.559 437.299 177.1C437.299 177.641 437.392 178.141 437.579 178.598C437.775 179.055 438.045 179.457 438.391 179.802C438.736 180.138 439.137 180.399 439.595 180.586C440.061 180.773 440.57 180.866 441.121 180.866ZM455.07 182.112C454.323 182.112 453.609 182 452.928 181.776C452.247 181.543 451.71 181.244 451.318 180.88L451.836 179.788C452.209 180.115 452.685 180.385 453.264 180.6C453.843 180.815 454.445 180.922 455.07 180.922C455.639 180.922 456.101 180.857 456.456 180.726C456.811 180.595 457.072 180.418 457.24 180.194C457.408 179.961 457.492 179.699 457.492 179.41C457.492 179.074 457.38 178.803 457.156 178.598C456.941 178.393 456.657 178.229 456.302 178.108C455.957 177.977 455.574 177.865 455.154 177.772C454.734 177.679 454.309 177.571 453.88 177.45C453.46 177.319 453.073 177.156 452.718 176.96C452.373 176.764 452.093 176.503 451.878 176.176C451.663 175.84 451.556 175.411 451.556 174.888C451.556 174.384 451.687 173.922 451.948 173.502C452.219 173.073 452.629 172.732 453.18 172.48C453.74 172.219 454.449 172.088 455.308 172.088C455.877 172.088 456.442 172.163 457.002 172.312C457.562 172.461 458.047 172.676 458.458 172.956L457.996 174.076C457.576 173.796 457.133 173.595 456.666 173.474C456.199 173.343 455.747 173.278 455.308 173.278C454.757 173.278 454.305 173.348 453.95 173.488C453.595 173.628 453.334 173.815 453.166 174.048C453.007 174.281 452.928 174.543 452.928 174.832C452.928 175.177 453.035 175.453 453.25 175.658C453.474 175.863 453.759 176.027 454.104 176.148C454.459 176.269 454.846 176.381 455.266 176.484C455.686 176.577 456.106 176.685 456.526 176.806C456.955 176.927 457.343 177.086 457.688 177.282C458.043 177.478 458.327 177.739 458.542 178.066C458.757 178.393 458.864 178.813 458.864 179.326C458.864 179.821 458.729 180.283 458.458 180.712C458.187 181.132 457.767 181.473 457.198 181.734C456.638 181.986 455.929 182.112 455.07 182.112ZM464.969 182.112C463.681 182.112 462.669 181.743 461.931 181.006C461.194 180.269 460.825 179.191 460.825 177.772V172.2H462.225V177.716C462.225 178.808 462.463 179.606 462.939 180.11C463.425 180.614 464.106 180.866 464.983 180.866C465.87 180.866 466.551 180.614 467.027 180.11C467.513 179.606 467.755 178.808 467.755 177.716V172.2H469.113V177.772C469.113 179.191 468.745 180.269 468.007 181.006C467.279 181.743 466.267 182.112 464.969 182.112ZM473.244 176.834H478.298V178.038H473.244V176.834ZM473.384 182H471.984V172.2H478.9V173.418H473.384V182ZM482.13 176.834H487.184V178.038H482.13V176.834ZM482.27 182H480.87V172.2H487.786V173.418H482.27V182ZM491.031 176.428H496.071V177.618H491.031V176.428ZM491.157 180.782H496.869V182H489.757V172.2H496.673V173.418H491.157V180.782ZM499.136 182V172.2H502.958C503.817 172.2 504.549 172.335 505.156 172.606C505.763 172.877 506.229 173.269 506.556 173.782C506.883 174.295 507.046 174.907 507.046 175.616C507.046 176.325 506.883 176.937 506.556 177.45C506.229 177.954 505.763 178.341 505.156 178.612C504.549 178.883 503.817 179.018 502.958 179.018H499.906L500.536 178.374V182H499.136ZM505.688 182L503.196 178.444H504.694L507.214 182H505.688ZM500.536 178.514L499.906 177.828H502.916C503.812 177.828 504.489 177.637 504.946 177.254C505.413 176.862 505.646 176.316 505.646 175.616C505.646 174.916 505.413 174.375 504.946 173.992C504.489 173.609 503.812 173.418 502.916 173.418H499.906L500.536 172.718V178.514ZM509.434 182.084C509.173 182.084 508.949 181.995 508.762 181.818C508.575 181.631 508.482 181.398 508.482 181.118C508.482 180.838 508.575 180.609 508.762 180.432C508.949 180.255 509.173 180.166 509.434 180.166C509.686 180.166 509.901 180.255 510.078 180.432C510.265 180.609 510.358 180.838 510.358 181.118C510.358 181.398 510.265 181.631 510.078 181.818C509.901 181.995 509.686 182.084 509.434 182.084Z" fill="black"/>
<path d="M451 -91.1941C504.667 -108.194 658.27 -125.002 765.5 -64.1941C873.347 -3.03684 856.926 112.472 950.5 193.805C1059.47 288.519 1196 323.972 1284.5 352.305" stroke="#FFE500"/>
<path d="M-39 -75C25.8333 9.5 192.1 186.3 338.5 217.5C484.9 248.7 636.833 251.5 694.5 249" stroke="#0014C9" stroke-opacity="0.4"/>
<mask id="mask1_1_467" style="mask-type:luminance" maskUnits="userSpaceOnUse" x="40" y="73" width="100" height="100">
<path d="M140 73H40V173H140V73Z" fill="white"/>
</mask>
<g mask="url(#mask1_1_467)">
<path d="M90 73C80.111 73 70.444 75.9324 62.2215 81.4265C53.9991 86.9206 47.5904 94.7295 43.806 103.866C40.0217 113.002 39.0315 123.055 40.9608 132.755C42.89 142.454 47.6521 151.363 54.6447 158.355C61.6373 165.348 70.5465 170.11 80.2455 172.039C89.9446 173.969 99.9979 172.978 109.134 169.194C118.271 165.41 126.079 159.001 131.573 150.779C137.068 142.556 140 132.889 140 123C139.998 109.74 134.729 97.0235 125.353 87.6472C115.976 78.2709 103.26 73.0023 90 73ZM82.3699 149.802H71.1445V113.207H82.3699V149.802ZM82.3699 107.353H71.1445V96.1364H82.3699V107.353ZM89.077 149.802H88.198V138.577H89.077C93.2082 138.577 97.1702 136.936 100.091 134.014C103.013 131.093 104.654 127.131 104.654 123C104.654 118.869 103.013 114.907 100.091 111.986C97.1702 109.064 93.2082 107.423 89.077 107.423H88.198V96.2068H89.077C96.1877 96.2068 103.007 99.0315 108.035 104.059C113.063 109.087 115.888 115.907 115.888 123.018C115.888 130.128 113.063 136.948 108.035 141.976C103.007 147.004 96.1877 149.828 89.077 149.828V149.802Z" fill="#263D9E"/>
<path d="M82.3699 107.353H71.1445V96.1364H82.3699V107.353Z" fill="white"/>
<path d="M82.3699 149.802H71.1445V113.207H82.3699V149.802Z" fill="white"/>
<path d="M89.077 149.802H88.198V138.577H89.077C93.2082 138.577 97.1702 136.936 100.091 134.014C103.013 131.093 104.654 127.131 104.654 123C104.654 118.869 103.013 114.907 100.091 111.986C97.1702 109.064 93.2082 107.423 89.077 107.423H88.198V96.2068H89.077C96.1877 96.2068 103.007 99.0315 108.035 104.059C113.063 109.087 115.888 115.907 115.888 123.018C115.888 130.128 113.063 136.948 108.035 141.976C103.007 147.004 96.1877 149.828 89.077 149.828V149.802Z" fill="white"/>
</g>
<path d="M184.905 73.0001L185.949 64.6001H187.293L186.261 73.0001H184.905ZM180.465 71.0801V69.7721H188.217V71.0801H180.465ZM181.797 73.0001L182.841 64.6001H184.185L183.141 73.0001H181.797ZM180.873 67.8281V66.5201H188.613L188.625 67.8281H180.873Z" fill="#FFE500"/>
<path d="M192.617 73.1441C191.945 73.1441 191.301 73.0561 190.685 72.8801C190.069 72.6961 189.573 72.4601 189.197 72.1721L189.857 70.7081C190.217 70.9641 190.641 71.1761 191.129 71.3441C191.625 71.5041 192.125 71.5841 192.629 71.5841C193.013 71.5841 193.321 71.5481 193.553 71.4761C193.793 71.3961 193.969 71.2881 194.081 71.1521C194.193 71.0161 194.249 70.8601 194.249 70.6841C194.249 70.4601 194.161 70.2841 193.985 70.1561C193.809 70.0201 193.577 69.9121 193.289 69.8321C193.001 69.7441 192.681 69.6641 192.329 69.5921C191.985 69.5121 191.637 69.4161 191.285 69.3041C190.941 69.1921 190.625 69.0481 190.337 68.8721C190.049 68.6961 189.813 68.4641 189.629 68.1761C189.453 67.8881 189.365 67.5201 189.365 67.0721C189.365 66.5921 189.493 66.1561 189.749 65.7641C190.013 65.3641 190.405 65.0481 190.925 64.8161C191.453 64.5761 192.113 64.4561 192.905 64.4561C193.433 64.4561 193.953 64.5201 194.465 64.6481C194.977 64.7681 195.429 64.9521 195.821 65.2001L195.221 66.6761C194.829 66.4521 194.437 66.2881 194.045 66.1841C193.653 66.0721 193.269 66.0161 192.893 66.0161C192.517 66.0161 192.209 66.0601 191.969 66.1481C191.729 66.2361 191.557 66.3521 191.453 66.4961C191.349 66.6321 191.297 66.7921 191.297 66.9761C191.297 67.1921 191.385 67.3681 191.561 67.5041C191.737 67.6321 191.969 67.7361 192.257 67.8161C192.545 67.8961 192.861 67.9761 193.205 68.0561C193.557 68.1361 193.905 68.2281 194.249 68.3321C194.601 68.4361 194.921 68.5761 195.209 68.7521C195.497 68.9281 195.729 69.1601 195.905 69.4481C196.089 69.7361 196.181 70.1001 196.181 70.5401C196.181 71.0121 196.049 71.4441 195.785 71.8361C195.521 72.2281 195.125 72.544 194.597 72.784C194.077 73.024 193.417 73.1441 192.617 73.1441ZM199.132 73.0001V66.1841H196.444V64.6001H203.764V66.1841H201.076V73.0001H199.132ZM203.285 73.0001L207.029 64.6001H208.949L212.705 73.0001H210.665L207.593 65.5841H208.361L205.277 73.0001H203.285ZM205.157 71.2001L205.673 69.7241H209.993L210.521 71.2001H205.157ZM213.576 73.0001V64.6001H215.184L220.14 70.6481H219.36V64.6001H221.28V73.0001H219.684L214.716 66.9521H215.496V73.0001H213.576ZM223.267 73.0001V64.6001H227.083C227.995 64.6001 228.799 64.7761 229.495 65.1281C230.191 65.4721 230.735 65.9561 231.127 66.5801C231.519 67.2041 231.715 67.9441 231.715 68.8001C231.715 69.6481 231.519 70.3881 231.127 71.0201C230.735 71.6441 230.191 72.1321 229.495 72.4841C228.799 72.8281 227.995 73.0001 227.083 73.0001H223.267ZM225.211 71.4041H226.987C227.547 71.4041 228.031 71.3001 228.439 71.0921C228.855 70.8761 229.175 70.5721 229.399 70.1801C229.631 69.7881 229.747 69.3281 229.747 68.8001C229.747 68.2641 229.631 67.8041 229.399 67.4201C229.175 67.0281 228.855 66.7281 228.439 66.5201C228.031 66.3041 227.547 66.1961 226.987 66.1961H225.211V71.4041ZM234.928 73.0001L232.18 64.6001H234.196L236.584 72.0401H235.576L238.072 64.6001H239.872L242.272 72.0401H241.3L243.748 64.6001H245.608L242.86 73.0001H240.772L238.648 66.4721H239.2L237.016 73.0001H234.928ZM246.693 73.0001V64.6001H248.637V73.0001H246.693ZM252.371 73.0001V66.1841H249.683V64.6001H257.003V66.1841H254.315V73.0001H252.371ZM263.809 64.6001H265.753V73.0001H263.809V64.6001ZM259.993 73.0001H258.049V64.6001H259.993V73.0001ZM263.953 69.5561H259.849V67.9121H263.953V69.5561ZM271.472 73.1441C270.28 73.1441 269.348 72.8121 268.676 72.1481C268.004 71.4841 267.668 70.5361 267.668 69.3041V64.6001H269.612V69.2321C269.612 70.0321 269.776 70.6081 270.104 70.9601C270.432 71.3121 270.892 71.4881 271.484 71.4881C272.076 71.4881 272.536 71.3121 272.864 70.9601C273.192 70.6081 273.356 70.0321 273.356 69.2321V64.6001H275.276V69.3041C275.276 70.5361 274.94 71.4841 274.268 72.1481C273.596 72.8121 272.664 73.1441 271.472 73.1441ZM278.937 71.0801L278.829 68.8361L282.849 64.6001H285.009L281.385 68.5001L280.305 69.6521L278.937 71.0801ZM277.197 73.0001V64.6001H279.129V73.0001H277.197ZM282.945 73.0001L279.957 69.34L281.229 67.9601L285.213 73.0001H282.945ZM286.08 73.0001V64.6001H289.716C290.468 64.6001 291.116 64.7241 291.66 64.9721C292.204 65.2121 292.624 65.5601 292.92 66.0161C293.216 66.4721 293.364 67.0161 293.364 67.6481C293.364 68.2721 293.216 68.8121 292.92 69.2681C292.624 69.7161 292.204 70.0601 291.66 70.3001C291.116 70.5401 290.468 70.6601 289.716 70.6601H287.16L288.024 69.8081V73.0001H286.08ZM291.42 73.0001L289.32 69.9521H291.396L293.52 73.0001H291.42ZM288.024 70.0241L287.16 69.1121H289.608C290.208 69.1121 290.656 68.9841 290.952 68.7281C291.248 68.4641 291.396 68.1041 291.396 67.6481C291.396 67.1841 291.248 66.8241 290.952 66.5681C290.656 66.3121 290.208 66.1841 289.608 66.1841H287.16L288.024 65.2601V70.0241ZM293.8 73.0001L297.544 64.6001H299.464L303.22 73.0001H301.18L298.108 65.5841H298.876L295.792 73.0001H293.8ZM295.672 71.2001L296.188 69.7241H300.508L301.036 71.2001H295.672ZM304.092 73.0001V64.6001H306.036V73.0001H304.092ZM308.029 73.0001V64.6001H309.637L314.593 70.6481H313.813V64.6001H315.733V73.0001H314.137L309.169 66.9521H309.949V73.0001H308.029ZM319.509 67.9841H323.553V69.4961H319.509V67.9841ZM319.653 71.4401H324.225V73.0001H317.721V64.6001H324.069V66.1601H319.653V71.4401Z" fill="black"/>
<path d="M915.5 48.5H654.5C641.245 48.5 630.5 59.2452 630.5 72.5C630.5 85.7548 641.245 96.5 654.5 96.5H915.5C928.755 96.5 939.5 85.7548 939.5 72.5C939.5 59.2452 928.755 48.5 915.5 48.5Z" fill="#263D9E" stroke="#263D9E"/>
<path d="M705.703 77.112C704.956 77.112 704.242 77 703.561 76.776C702.88 76.5427 702.343 76.244 701.951 75.88L702.469 74.788C702.842 75.1147 703.318 75.3853 703.897 75.6C704.476 75.8147 705.078 75.922 705.703 75.922C706.272 75.922 706.734 75.8567 707.089 75.726C707.444 75.5953 707.705 75.418 707.873 75.194C708.041 74.9607 708.125 74.6993 708.125 74.41C708.125 74.074 708.013 73.8033 707.789 73.598C707.574 73.3927 707.29 73.2293 706.935 73.108C706.59 72.9773 706.207 72.8653 705.787 72.772C705.367 72.6787 704.942 72.5713 704.513 72.45C704.093 72.3193 703.706 72.156 703.351 71.96C703.006 71.764 702.726 71.5027 702.511 71.176C702.296 70.84 702.189 70.4107 702.189 69.888C702.189 69.384 702.32 68.922 702.581 68.502C702.852 68.0727 703.262 67.732 703.813 67.48C704.373 67.2187 705.082 67.088 705.941 67.088C706.51 67.088 707.075 67.1627 707.635 67.312C708.195 67.4613 708.68 67.676 709.091 67.956L708.629 69.076C708.209 68.796 707.766 68.5953 707.299 68.474C706.832 68.3433 706.38 68.278 705.941 68.278C705.39 68.278 704.938 68.348 704.583 68.488C704.228 68.628 703.967 68.8147 703.799 69.048C703.64 69.2813 703.561 69.5427 703.561 69.832C703.561 70.1773 703.668 70.4527 703.883 70.658C704.107 70.8633 704.392 71.0267 704.737 71.148C705.092 71.2693 705.479 71.3813 705.899 71.484C706.319 71.5773 706.739 71.6847 707.159 71.806C707.588 71.9273 707.976 72.086 708.321 72.282C708.676 72.478 708.96 72.7393 709.175 73.066C709.39 73.3927 709.497 73.8127 709.497 74.326C709.497 74.8207 709.362 75.2827 709.091 75.712C708.82 76.132 708.4 76.4727 707.831 76.734C707.271 76.986 706.562 77.112 705.703 77.112ZM715.602 77.112C714.314 77.112 713.302 76.7433 712.564 76.006C711.827 75.2687 711.458 74.1907 711.458 72.772V67.2H712.858V72.716C712.858 73.808 713.096 74.606 713.572 75.11C714.058 75.614 714.739 75.866 715.616 75.866C716.503 75.866 717.184 75.614 717.66 75.11C718.146 74.606 718.388 73.808 718.388 72.716V67.2H719.746V72.772C719.746 74.1907 719.378 75.2687 718.64 76.006C717.912 76.7433 716.9 77.112 715.602 77.112ZM722.616 77V67.2H726.438C727.297 67.2 728.03 67.3353 728.636 67.606C729.243 67.8767 729.71 68.2687 730.036 68.782C730.363 69.2953 730.526 69.9067 730.526 70.616C730.526 71.3253 730.363 71.9367 730.036 72.45C729.71 72.954 729.243 73.346 728.636 73.626C728.03 73.8967 727.297 74.032 726.438 74.032H723.386L724.016 73.374V77H722.616ZM724.016 73.514L723.386 72.814H726.396C727.292 72.814 727.969 72.6227 728.426 72.24C728.893 71.8573 729.126 71.316 729.126 70.616C729.126 69.916 728.893 69.3747 728.426 68.992C727.969 68.6093 727.292 68.418 726.396 68.418H723.386L724.016 67.718V73.514ZM732.583 77V67.2H736.405C737.264 67.2 737.997 67.3353 738.603 67.606C739.21 67.8767 739.677 68.2687 740.003 68.782C740.33 69.2953 740.493 69.9067 740.493 70.616C740.493 71.3253 740.33 71.9367 740.003 72.45C739.677 72.954 739.21 73.346 738.603 73.626C737.997 73.8967 737.264 74.032 736.405 74.032H733.353L733.983 73.374V77H732.583ZM733.983 73.514L733.353 72.814H736.363C737.259 72.814 737.936 72.6227 738.393 72.24C738.86 71.8573 739.093 71.316 739.093 70.616C739.093 69.916 738.86 69.3747 738.393 68.992C737.936 68.6093 737.259 68.418 736.363 68.418H733.353L733.983 67.718V73.514ZM747.111 77.112C746.364 77.112 745.669 76.986 745.025 76.734C744.39 76.482 743.839 76.132 743.373 75.684C742.906 75.2267 742.542 74.6947 742.281 74.088C742.019 73.4813 741.889 72.8187 741.889 72.1C741.889 71.3813 742.019 70.7187 742.281 70.112C742.542 69.5053 742.906 68.978 743.373 68.53C743.839 68.0727 744.39 67.718 745.025 67.466C745.659 67.214 746.355 67.088 747.111 67.088C747.857 67.088 748.543 67.214 749.169 67.466C749.803 67.7087 750.354 68.0587 750.821 68.516C751.297 68.964 751.661 69.4913 751.913 70.098C752.174 70.7047 752.305 71.372 752.305 72.1C752.305 72.828 752.174 73.4953 751.913 74.102C751.661 74.7087 751.297 75.2407 750.821 75.698C750.354 76.146 749.803 76.496 749.169 76.748C748.543 76.9907 747.857 77.112 747.111 77.112ZM747.111 75.866C747.652 75.866 748.151 75.7727 748.609 75.586C749.075 75.3993 749.477 75.138 749.813 74.802C750.158 74.4567 750.424 74.0553 750.611 73.598C750.807 73.1407 750.905 72.6413 750.905 72.1C750.905 71.5587 750.807 71.0593 750.611 70.602C750.424 70.1447 750.158 69.748 749.813 69.412C749.477 69.0667 749.075 68.8007 748.609 68.614C748.151 68.4273 747.652 68.334 747.111 68.334C746.56 68.334 746.051 68.4273 745.585 68.614C745.127 68.8007 744.726 69.0667 744.381 69.412C744.035 69.748 743.765 70.1447 743.569 70.602C743.382 71.0593 743.289 71.5587 743.289 72.1C743.289 72.6413 743.382 73.1407 743.569 73.598C743.765 74.0553 744.035 74.4567 744.381 74.802C744.726 75.138 745.127 75.3993 745.585 75.586C746.051 75.7727 746.56 75.866 747.111 75.866ZM754.445 77V67.2H758.267C759.125 67.2 759.858 67.3353 760.465 67.606C761.071 67.8767 761.538 68.2687 761.865 68.782C762.191 69.2953 762.355 69.9067 762.355 70.616C762.355 71.3253 762.191 71.9367 761.865 72.45C761.538 72.954 761.071 73.3413 760.465 73.612C759.858 73.8827 759.125 74.018 758.267 74.018H755.215L755.845 73.374V77H754.445ZM760.997 77L758.505 73.444H760.003L762.523 77H760.997ZM755.845 73.514L755.215 72.828H758.225C759.121 72.828 759.797 72.6367 760.255 72.254C760.721 71.862 760.955 71.316 760.955 70.616C760.955 69.916 760.721 69.3747 760.255 68.992C759.797 68.6093 759.121 68.418 758.225 68.418H755.215L755.845 67.718V73.514ZM766.426 77V68.418H763.066V67.2H771.172V68.418H767.812V77H766.426ZM780.516 77.112C779.228 77.112 778.216 76.7433 777.478 76.006C776.741 75.2687 776.372 74.1907 776.372 72.772V67.2H777.772V72.716C777.772 73.808 778.01 74.606 778.486 75.11C778.972 75.614 779.653 75.866 780.53 75.866C781.417 75.866 782.098 75.614 782.574 75.11C783.06 74.606 783.302 73.808 783.302 72.716V67.2H784.66V72.772C784.66 74.1907 784.292 75.2687 783.554 76.006C782.826 76.7433 781.814 77.112 780.516 77.112ZM788.763 74.634L788.693 72.926L794.251 67.2H795.847L791.549 71.736L790.765 72.604L788.763 74.634ZM787.531 77V67.2H788.931V77H787.531ZM794.475 77L790.457 72.324L791.395 71.288L796.113 77H794.475ZM797.593 77V67.2H801.415C802.274 67.2 803.006 67.3353 803.613 67.606C804.22 67.8767 804.686 68.2687 805.013 68.782C805.34 69.2953 805.503 69.9067 805.503 70.616C805.503 71.3253 805.34 71.9367 805.013 72.45C804.686 72.954 804.22 73.3413 803.613 73.612C803.006 73.8827 802.274 74.018 801.415 74.018H798.363L798.993 73.374V77H797.593ZM804.145 77L801.653 73.444H803.151L805.671 77H804.145ZM798.993 73.514L798.363 72.828H801.373C802.269 72.828 802.946 72.6367 803.403 72.254C803.87 71.862 804.103 71.316 804.103 70.616C804.103 69.916 803.87 69.3747 803.403 68.992C802.946 68.6093 802.269 68.418 801.373 68.418H798.363L798.993 67.718V73.514ZM806.281 77L810.719 67.2H812.105L816.557 77H815.087L811.125 67.984H811.685L807.723 77H806.281ZM808.171 74.55L808.549 73.43H814.065L814.471 74.55H808.171ZM818.019 77V67.2H819.419V77H818.019ZM822.353 77V67.2H823.501L829.983 75.25H829.381V67.2H830.781V77H829.633L823.151 68.95H823.753V77H822.353ZM834.988 71.428H840.028V72.618H834.988V71.428ZM835.114 75.782H840.826V77H833.714V67.2H840.63V68.418H835.114V75.782Z" fill="white"/>
<path d="M858.055 71.5C858.055 71.357 858.111 71.2199 858.213 71.1188C858.314 71.0177 858.451 70.9609 858.594 70.9609H873.104L867.557 65.4122C867.504 65.3628 867.461 65.3033 867.432 65.2372C867.402 65.1711 867.386 65.0997 867.385 65.0273C867.384 64.9549 867.397 64.883 867.424 64.8159C867.451 64.7488 867.492 64.6878 867.543 64.6366C867.594 64.5854 867.655 64.5451 867.722 64.518C867.789 64.4909 867.861 64.4776 867.934 64.4788C868.006 64.4801 868.077 64.4959 868.143 64.5254C868.21 64.5549 868.269 64.5974 868.318 64.6503L874.787 71.1191C874.888 71.2201 874.945 71.3572 874.945 71.5C874.945 71.6429 874.888 71.7799 874.787 71.8809L868.318 78.3497C868.216 78.4449 868.081 78.4967 867.941 78.4943C867.802 78.4918 867.669 78.4352 867.57 78.3365C867.471 78.2377 867.414 78.1045 867.412 77.9648C867.409 77.8252 867.461 77.69 867.557 77.5878L873.104 72.0391H858.594C858.451 72.0391 858.314 71.9823 858.213 71.8812C858.111 71.7801 858.055 71.643 858.055 71.5Z" fill="#FFE500"/>
</g>
</svg>
